<svg height="64" width="240" xmlns="http://www.w3.org/2000/svg" xmlns:xlink="http://www.w3.org/1999/xlink"><mask id="a" fill="#fff"><path d="m0 .345v63.14h42.658v-63.14z" fill="#fff" fill-rule="evenodd"/></mask><mask id="b" fill="#fff"><path d="m0 63.5h239.987v-63.155h-239.987z" fill="#fff" fill-rule="evenodd"/></mask><g fill="#202020" fill-rule="evenodd" transform="translate(0 .155)"><g><path d="m40.318 51.553c.045 0 .09 0 .09-.045 0 0-.045 0-.09.045zm-.18-.135c.045 0 .09 0 .09-.045 0 0-.045 0-.09.045zm-4.995-1.08c-.044.09-.314 0-.314-.135.179-.045.224.09.314.135zm-.764-.36c0 .044-.045.044-.045.09h-.09v-.135c.09 0 .09.045.135.045zm-1.71-1.17c.045 0 .09 0 .09-.045 0 0-.044 0-.09.045zm-.585-.135c.09.09.224 0 .27-.045h-.27c-.045-.135-.225.045 0 0zm-.54-1.71c.045 0 .09 0 .09-.045 0 0-.045 0-.09.045zm-.135-.135h.09v-.09h-.09zm.135 1.935c-.18.045-.27-.18-.36 0 .135.09.27.09.36 0zm-.54-1.98c.045 0 .09 0 .09-.045 0 0-.045 0-.09.045zm-.135 1.53c-.045.09.18.135.135.045-.045 0-.045-.045-.135-.045zm-.045-46.348s-.045 0-.045-.046c.045 0 .09 0 .045.046zm-.54 46.528c.045.045.225.09.225 0 0-.045-.18-.09-.225 0zm-.135-36.988v-.045c.045 0 .09.045 0 .045zm-.09 34.964c.09-.045.18.136.18 0 0 0-.135-.135-.18 0zm-.27 1.89c0 .27-.27 0-.495.135v-.135c.045 0 .09 0 .045-.045.225-.045.315.045.45.045zm-.945-.27s-.045-.045-.045-.09h-.18c0 .09.045.135.045.18.09 0 .18-.045.18-.09zm-.405-2.16c.045 0 .09 0 .09-.045 0 0-.045 0-.09.045zm4.815-41.489c-1.035 2.161-2.385 4.5-3.105 7.02-.765 2.115-1.395 4.41-1.8 6.48 2.115-1.799 4.41-3.825 6.03-5.804-.09 0-.045-.09-.09-.135.135 0 .09.135.18.045 1.17-1.665 2.925-4.32 2.835-6.93 0-.54-.27-.989-.54-1.44-.09 0-.135-.09-.225-.18-.45-.135-.72-.45-1.08-.63-.54.18-1.395.45-1.71 1.125-.224.045-.224.405-.495.45zm-5.04 43.109c.135-.045.36.045.36-.045-.045-.044-.135-.09-.135-.18-.09.045-.225.045-.315.136.09 0 .09.044.09.09-.18-.045 0 .135 0 0zm-1.125-.18c.135.045.27.045.315-.045l.675.09c-.09-.18-.495-.225-.675-.09-.09.045-.27-.045-.315.045zm-.675-18.314c0 .045-.045.045-.09.045.045-.045.09-.045.09-.045zm-.09.36c-.18 0 .045-.09-.045-.226.18-.09.135.226.045.226zm-.36 1.889c.045-.045.09-.09.045-.18.09 0 .09.27-.045.18zm.585 15.749c-.135-.09-.225-.045-.36.045 0-.09.045-.224-.09-.18 0 .18-.27.045-.315.225.315.09.585.09.765-.09zm-.72-14.849c-.18-.09.135-.405.09-.585.225.09 0 .45-.09.585zm-.585 15.164c.09 0 .135 0 .135-.045-.045 0-.09 0-.135.045zm-.045-.495c.135 0 .18 0 .225.044.09-.135-.225-.135-.225-.044zm-.54-1.486c.09-.135-.135-.135-.135-.045.045 0 .09 0 .045.045zm-.225-.36c0 .045-.045.045-.09.045.045-.045.09-.045.09-.045zm-.135-8.639c-.135.135.225 0 .135-.045 0-.045-.09.045-.135.045zm.18 8.865c-.135-.044-.315-.044-.45.045.225 0 .36.09.45-.045zm-.495-.27c0 .045-.045.045-.134.045.044-.045.089-.045.134-.045zm-.18-9.809c0-.089.09-.089.046-.18-.046 0-.135 0-.181.045 0 .09.046.135.135.135zm0-3.15c-.045 0-.135 0-.135.09.09 0 .135-.045.135-.09zm-.045 15.12c-.044 0-.09.045-.135.09.09 0 .135-.044.135-.09zm-.63-3.465c.09 0 .135 0 .135-.045-.045 0-.09 0-.135.045zm-.18 3.24c.046 0 .09 0 .09-.044 0 0-.044 0-.09.044zm-.765.855c-.044 0-.135 0-.135.09.09 0 .135-.045.135-.09zm-.314 1.035c-.091 0-.135.045-.135.135.135.045.09-.09.135-.135zm-.945 3.735c0 .135-.09.27-.27.27.091-.135.135-.27.27-.27zm-.27.54c-.044 0 0 .044 0 .044-.044.045-.179.136-.044.181 0 .179-.135-.045-.135.179-.045 0-.045-.045-.135-.045.135-.315.18-.18.225-.54h.135v.225h-.046zm-.539.855c-.09 0 0-.135 0-.181.134.045 0 .09 0 .181zm0-9.9h-.135c.045.09.045.135.09.18.046-.045.09-.09.046-.18zm-.72.9c0 .044-.045.044-.09.044.045-.044.09-.044.09-.044zm-.135.09c-.09.045-.09-.045-.225-.045 0-.089.315-.089.225.045zm-.765.09c.09 0 .135 0 .135-.045-.045 0-.09 0-.135.045zm-.54-.045c0 .09-.045.09-.18.09v-.045c.09 0 .09-.045.18-.045zm-.135.585c-.045 0-.09.045-.135.09.09 0 .135-.045.135-.09zm-.315 2.655c.045-.09.135-.09.225-.09.09.135-.135.045-.225.09zm-.675-3.06c0 .045-.045.045-.135.045.045-.045.09-.045.135-.045zm-.945 2.34c.675-.18 1.575-.315 2.205-.405.315-.045.81.044.765-.315l-3.78.764c.315 0 .495-.09.81-.045zm-1.08.045c.09 0 .09.045.09 0s-.045-.045-.09 0zm-.315 12.645c0 .045-.045.045-.135.045.045-.045.09-.045.135-.045zm-.63-4.094c0 .044 0 .044-.045.044zm-.045.09s-.045 0-.09-.045h.09zm.225-8.28c-.27.045-.54.09-.72.225.27-.045.63-.045.72-.225zm-1.305 9.225c.045-.045.045-.045.09-.045 0 .045-.045.09-.09.045zm-.27 3.6c.225.045.045-.135 0 0-.18-.045 0 .135 0 0zm-.495.63c.27.09.675-.135.855-.36-.27.045-.315.135-.675.09-.045.18 0 .18-.18.27zm-.45-2.655c-.18-.045 0 .135 0 0 .045 0 .045 0 .045-.045.135 0 0-.18 0 0zm-.135-12.059c.045 0 .09 0 .09-.045 0 0-.045 0-.09.045zm-.18 12.06c.045 0 .09 0 .09-.045 0 0-.045 0-.09.045zm-.135 2.565c.045.045 0 .135.045.135.09-.09 0-.045 0-.18-.09 0-.18 0-.225.09.09 0 .135-.045.18-.045zm-.18.585c-.045 0-.135 0-.135.09.09 0 .135-.045.135-.09zm-2.7-1.53c0 .045-.046.045-.091.045.045-.045.091-.045.091-.045zm-1.26.54c-.045 0-.135 0-.135.09.09 0 .135-.045.135-.09zm-.495.045c.18.045.18 0 .315.09.089-.18-.225-.18-.315-.09zm-.315-.045c-.09 0-.225-.045-.27.09.135 0 .27 0 .27-.09zm-1.845 1.485c-.045 0-.09 0-.135.045.09 0 .09.09.135.09zm.27-1.8v-.135c.135.18.225.045.36.18-.045 0-.135-.045-.18.045.09.09.18-.09.27.045.045-.09-.045-.135 0-.135.225.135.495.18.675.36.225-.27.945 0 1.26-.18 0-.045-.091-.045-.135-.09.135 0 .09-.18.225-.135-.09.09.045.135-.045.225.18 0 .225-.135.09-.18.359-.045.765-.225 1.034-.045-.81-.045.361.225.361-.09 0-.09-.09 0-.135-.09.135-.045.315 0 .27-.135-.09 0-.18.09-.225-.045.225 0 .315-.09.54-.045.044.045.089 0 0 0 .63-.315 1.349-.36 1.8-.9-.045 0-.09.045-.18.045 0-.135-.045-.18.045-.225.09.18.315-.045.36.135.135-.18.405-.18.405-.405-.135-.045-.135.225-.27.09.135-.135.045-.135 0-.27.765-.36 1.215-.99 1.89-1.395-.045 0-.045-.09-.135-.09.045-.045.135-.045.09-.135.18-.045.27-.18.45-.18.045.045.09 0 0 0 .09-.134.315-.225.135-.404.18 0 .315-.045.315-.18.18 0 .09-.18.18-.18-.045 0-.225.045-.18-.09.18.045.18-.045.225-.09.09 0 .045.09.09.09.09-.135.18-.225.225-.36h-.135c.135-.09.225-.359.36-.225 0-.134-.045-.134 0-.225.135.091.135.091.225 0 .09-.179-.09-.09-.09-.224.495-.27.405-.721.9-.901.045-.09-.045-.09-.045-.179.135 0 .18 0 .18-.09-.09 0-.045-.09-.135-.09.135-.045.405-.225.18-.27.045-.09.18-.045.18-.09.315-.766.675-.99.72-1.575.18.045.45-.27.315-.54.045 0 .18.09.18 0-.09-.045.09-.09.045-.135-.045 0-.09.09-.135 0 .09-.135.09-.18.135-.045.045-.09.09-.135.09-.181-.045-.044-.225.046-.225-.044.225 0 .405 0 .405-.18-.045 0-.225.045-.18-.09.135.09.09 0 .135-.045.045.045.09 0 0 0 .045-.045.09-.045.09-.045.045-.225.135-.36.09-.495h.18c-.045-.18.045-.135.045-.27-.045 0-.045 0-.09-.045.225 0 .045-.045 0-.09.135-.18.36-.27.27-.495.09.09.225.045.18-.09 0-.18-.135.09-.135-.045s.135-.18.225-.225c.045-.135-.09-.09-.09-.225.09-.09.27-.045.225-.18-.045 0-.09 0-.135-.045.09-.09.18-.225.18-.36-.225 0-.315.135-.45.225-.99.045-2.43.09-3.195.72-1.755.405-3.465 1.26-5.219 1.845.045.045.045.135-.045.135-.27.09-.36.405-.765.405-.45.45-1.17.675-1.665 1.125-.81.27-1.08 1.124-1.8 1.575-.675 1.259-1.665 2.25-2.07 3.869.225.046 0 .45 0 .631.27.584.315 1.664 1.035 1.98-.045 0-.09 0-.135.045.135 0 .135.09.225.045 0 .09.045.135.135.135zm-4.276-2.208c.09-.181.225.134.045.134 0-.045.045-.134-.045-.134zm0-2.701c.045 0 .09 0 .09-.045 0 0-.045 0-.09.045zm-.045-1.034c.18.045 0 .224 0 .315zm26.549-28.439c.045.045.09.045.135.045-.09.135-.225.27-.09.45-.045 0 0 .135-.18.09.135.45-.27.495-.135.855-.18.225-.045.765-.405.855 0 .09.045.18.09.18-.18 0 0 .54-.27.54.09.09.18.18.135.406-.09.09 0 .18-.18.09.18.54-.09.765-.09 1.395-.09 0-.09.135-.225.135.045.091.135 0 .135.091-.09.359-.045.989-.315 1.305.09.36 0 .855-.225 1.08-.045.135.18.045.09.181-.225.314-.09.899-.45 1.349.135.09.18.675-.09.9.135.135 0 .45-.18.584.225.09.045.226 0 .361.045.045.09.045.045.135.225-.27.135.315-.09.315.045.09.18.09.135.225-.09.045-.09.18-.18.27.045.045.09.045.135.045.045.09.09.18.09.27-.09 0-.135 0-.18.09.045.045.09.045.135.045-.135.225.09.72-.27.9.09.179 0 .315.135.494-.45 1.395-.63 2.835-.945 4.005-.135.09-.225.406-.135.495-.09.136-.09.27-.09.451.045.134.135-.091.18.045.045.09-.045.09-.135.09 1.08.27 1.8.045 2.88.27.045.181.18.225.225.36.225-.135.315-.045.495-.179.81.224 1.71.224 2.385.629-.18.135-.36-.044-.585-.044.36.225.585.18.9 0a61.21 61.21 0 0 1 5.535 1.98c.36.225.675.45 1.125.54.99.675 2.16 1.215 2.97 2.07.18.045.45 0 .45.224-.09 0-.09-.089-.225-.044.135.135.27.225.405.315l.135.136c.045-.09 0-.136-.135-.136 0-.044 0-.09-.045-.09.27-.135.36.27.54.315.63.72 1.215 1.485 1.71 2.295v.135c.27.27.36.72.54 1.08-.18.54-.72 0-1.035.09 0-.045-.045-.09 0-.136-.9-.585-1.62-1.395-2.385-2.16-.585-.315-1.035-.855-1.71-1.125v-.135c-.585-.09-.81-.54-1.395-.54.045-.044.09-.044.045-.134-.09-.045-.135.09-.224-.136-.226.136-.585.09-.72-.18.18-.045.18.045.315.045-.09-.18-.45-.18-.63-.36-.225.18-.27.135-.495.045 0-.136.18-.045.18-.136 0-.135-.224-.09-.315-.179-.36.315-.63-.225-.99-.18 0-.135.09-.135.18-.135-.135-.225-.359.09-.675.045.135-.135-.045-.18.135-.315-.046 0-.09 0-.135-.045-.045.045-.09.135-.135.225-.361-.045-.765-.045-1.035-.18.045-.18.27-.225.36-.315-.18-.045-.45.18-.765.225-.046-.18-.405-.045-.36-.315-.315 0-.63.135-.675-.225-.135.09-.495.27-.585-.045.225-.045.315-.18.495-.18-.135-.09-.585-.27-.765-.09l-.045.045c-.495.405-1.035-.09-1.62-.09 0-.09.09-.09.045-.18-.54.045-.9.18-1.35-.135-.225.045-.36.09-.495-.18-.855.225-1.89-.225-2.97-.045 0-.09.045-.135.045-.18-.09.045-.224.045-.315.09.135.405-.36.405-.135.81-.27.405-.09.855-.495 1.08.09.09 0 .09.045.225-.18-.045-.135.18-.315.18 0 .135.09.135.044.225-.224-.09-.27.225-.314.45-.18-.044-.136.09-.27.09.045.045.09.045.09.09-.315.765-.495 1.575-.99 2.16.045.045.089.045.045.135-.495.36-.405 1.125-.99 1.485-.045.585-.585 1.125-.945 1.62-.135.179-.315.674-.675.81.045.045.045.09.045.09-.27.135-.315.585-.585.766h-.09c.045-.181-.135.044-.27.044.045.09.225-.044.27-.044-.27.359-.54.719-.945.989-.135.045-.045-.135-.225-.09 0 .135-.315.18-.225.315-.045.09-.135-.045-.27.045.09.225-.315.765-.81.765 0 .225-.36.27-.45.405.045.045.09.09.135.09-.18.135-.405.45-.675.675-.27 0-.54.09-.675.315-.225-.18-.27.18-.585.135-.45.225-.45.81-1.08.765-.45.54-.855.585-1.62.675-.045 0 0 .09-.045.18-.405.225-.9.36-1.53.315-.089-.045-.135-.135-.27-.135-.944.45-1.844-.045-2.654-.09v-.135c-.63-.045-1.395-.63-1.89-.855-.045-.045-.09-.135-.09-.225-.45.135-.72-.72-1.215-.9.045-.045.045-.09.09-.09-.225-.18-.315-.18-.405-.495 0 0-.045 0-.09.045-.045 0-.045-.135.045-.09 0-.09-.315-.315-.315-.135-.225-.315-.225-.81-.54-1.17h.134c-.045-.09-.09-.09-.225-.045.09-.18-.09-.45-.315-.36.27-.359.045-.765-.36-.899.36-.54-.09-.901.27-1.306-.135-.18 0-.45.045-.675-.315-.18.315-.405.135-.855.225 0-.135-.315.135-.315-.045-.045-.045-.181-.045-.315.675-1.125 1.305-2.25 2.295-3.015.315-.315.54-.765.945-.945 1.98-1.44 4.41-2.61 6.795-3.42.09-.09.27-.225.36-.135.27-.27.765-.225 1.035-.45.18-.045.135.09.27.045.09 0 0-.045 0-.135.54-.09.945-.136 1.35-.406.18-.045.09.136.225.091 0-.136.135-.136.315-.181 0 .09-.045.09-.18.09.225.091.54-.09.72-.135.09 0 .135 0 .135-.044 0-.136-.135 0-.135.044h-.135c.45-.27 1.125-.36 1.8-.45.045.136-.18-.045-.18.09-.09 0-.135 0-.225.046.045.089.225 0 .225-.046.675.135.765-.36 1.305-.224.045-.09.225-.226.315-.09 0 0-.045 0-.09.045.495.224.585-.225 1.125-.181.046.27.316.045.585.09.18-.179 0-.675.36-.719 0-.181 0-.136-.09-.315.27-.09 0-.136.135-.315h.045v.09c.09 0 .045-.09 0-.09.09-.495.135-.675.315-.901-.045 0-.18.045-.09-.179.135-.226.18-.451.18-.766.09-.044.046-.135.135-.044-.315-.45.316-1.125.181-1.891.089-.134.224-.224.18-.45.135-.136.09-.225 0-.315.18-.18.36-.72.18-.9 0-.135.27-.135.09-.27.044-.045.18-.225.044-.27.226-.135-.09-.315.135-.27 0-.045 0-.045-.09-.045.225-.45.09-.81.316-1.035-.046-.18-.091-.675.135-.81-.135-.315.224-.765.045-.9.135 0 .27-.45.089-.45.225-.45.36-1.215.27-1.575.315-.135 0-.855.27-.989-.045-.631.27-1.125.18-1.935.315-.45.315-1.395.224-1.71.091-.135.091-.045.18-.09-.045-.991.405-2.25.405-3.69-1.755.9-3.599 1.53-5.895 2.16-.99.09-2.565.675-3.42 0-.045-.135 0-.36-.225-.36.045-.09.27 0 .36-.045 2.205-.585 3.645-1.89 5.624-2.61l3.105-1.665c.45-.27.81-.585 1.305-.765l.99-5.895c.09 0 .09.045.135 0 .09-.135-.135-.045-.09-.18.135 0 .27-.27.09-.315.135-.044.135-.27.18-.404s-.045-.18-.045-.27c.81-3.06 1.53-5.985 2.88-8.369.09-.36.27-.585.315-.945.225-.09.225-.18.225-.361.72-.764 1.305-1.619 2.07-2.249.585-.45 1.035-1.125 1.89-1.08.27-.18.36-.54.63-.315.135-.045.135-.18.181-.225.405 0 .72.27.99.225 1.485.72 3.375 1.035 4.185 2.385.405.45.99.99.855 1.799.045.045.09.091.09.181 0 .449.18 1.034.18 1.574.09 2.116-.945 3.78-1.98 5.4-.09 0-.135.045-.225.09.09.09.045.09 0 .225-.495.27-.45.81-.945 1.125-.45.99-1.26 1.62-1.755 2.609-.045 0-.045.045-.18.045-.45.765-1.17 1.351-1.889 1.89-.81 1.08-2.115 1.665-3.105 2.61-.045 0-.09-.045-.135-.045-.45.63-1.44.675-1.575 1.62-.135 0-.135.18-.27.225 0 .54-.27.72-.225 1.17-.315.585-.225 1.08-.405 1.89-.18.045-.27.45-.135.585-.09 0-.135.045-.09.135-.18 0 0 .135-.135.18z" mask="url(#a)"/><path d="m49.993 30.809c0 .135-.045.224-.135.18-.09-.09 0-.045 0-.18zm-.27.72c-.09-.044-.09-.315.09-.27 0 .136-.09.18-.09.27zm-7.199 4.32h-.135c-.045-.09 0-.09.045-.179.09 0 .09.09.09.179zm-3.555-4.229v.045c-.045 0-.045-.045 0-.045zm1.575-6.029c-.675.044-.9.54-1.44.674-.405.855-1.08 1.395-1.395 2.34-.45.27-.495.855-.81 1.215-.045.135.045.18.045.27-.405.585-.405 1.305-.855 1.89.09.36-.045 1.125-.225 1.305.045.27.045.406-.09.585.179.54 0 1.261.404 1.575 1.26-.9 1.935-2.431 2.79-3.78.99-1.71 1.125-4.14 1.575-6.074zm3.195-.046c.09.18.09.27.18.36-.27.45-.09.945-.45 1.305 0 .09.135.045.135.09-.135.765-.09 1.71-.405 2.25.044 1.62-.54 2.7-.585 3.96-.27.225 0 .495-.225.675.045.361.135.72-.135.946.045.359 0 .719.135 1.304.045.225-.18.18-.135.36 0 .135.09-.045.18 0-.09.18-.27.495-.225.63s.045-.09.18-.044c-.045.719-.045 1.349-.27 1.844l.135.54c-.225.045-.135.135-.18.315.045.135.09.045.27.045-.315.404.225 1.259-.27 1.62.225.27.18.764.09 1.079.36.406.135.946.585 1.306.54-.36.72-1.125 1.125-1.665l.809-1.98c.675-1.125.901-2.745 1.53-4.005 0-.045 0-.09.045-.09.09-.765.405-1.35.54-2.069.225-.495.45-.99.585-1.62.135-.09.09-.359.27-.404-.045-.045-.045-.09-.045-.181.135-.044.09-.225.225-.315-.18-.675.675-1.215.495-1.98h.135c.63-1.755 1.62-3.15 2.52-4.68.45-.225.675-.719 1.395-.719l.27.495c-.315.18-.315.63-.585.81.045.315-.045.991-.54 1.08-.09.09.045.135 0 .27-.585.495-.495 1.349-1.125 1.71 0 .315-.09.855-.315 1.035a1.33 1.33 0 0 1 -.495 1.125c0 .09.135.045.18.09-.225.225-.27.54-.18.855-.09 0-.09-.134-.18-.045-.045.18.135.136.135.27-.405 1.035-.63 2.25-1.08 3.06 0 .09.09.225.045.27-.224.225 0 .63-.27.855.046.45-.045.945-.315 1.26-.044 1.215-.764 2.16-.99 3.33-.585.9-.675 2.07-1.44 2.835-.044.945-.944 1.395-1.26 2.205-.495.27-.809.9-1.44.855-.045-.179 0-.225-.045-.45-.18.045-.09.36-.09.495-3.195-.45-3.555-3.914-3.96-6.84l.09-4.095c-.36.27-.45.765-.99.855-.09.135-.18.225-.27.315-.45.135-.764.225-1.17.135-2.16-.315-3.599-3.105-3.195-5.895 0-.134.135-.09.181-.18-.135-.27.09-.315 0-.54.72-2.295 1.889-4.5 3.51-6.075v-.225c.405-.134.63-.404 1.17-.18.405-.315.9.046 1.44.046 0-.09-.09-.09-.135-.136.405 0 1.035.315 1.35.406.09-.046 0-.225.045-.36.405-.27 1.035-.135 1.485.09.45-.09.855.224 1.26.27-.18.54.585.54.27 1.125z"/><path d="m74.878 24.554c-.135-.135.135-.135.09-.135.18.045-.09.045-.09.135zm-3.06 5.76v.134c-.09 0-.045-.09-.135-.09.045-.044.09-.044.135-.044zm-.585 1.169h.09v-.09h-.09zm-9.224-4.679c.045.09.045.135.09.179 0-.089.045-.224-.09-.179zm-.72 8.685c.045 0 .09 0 .09-.045 0 0-.09 0-.09.045zm-.45 12.285h-.135v-.09c.09-.045.18 0 .135.09zm-.36-22.319c.045.09-.135.135 0 .18.045-.045.135-.18 0-.18zm-.27.54c.09-.045 0-.045 0 0-.135 0 .045.18 0 0zm-2.88 4.634c.045-.089.18-.134.18 0zm-.225.405h.09v-.09h-.09zm-.809 1.71c.09-.045 0-.045 0 0-.045 0 .044.046 0 0zm12.644 4.275c.135 0 .225-.27.044-.27.045-.72.45-1.035.541-1.485.09-.135.27-.135.27-.315.044-.135-.18 0-.135-.135h.135c0-.541.404-.946.54-1.53.09 0 .135 0 .135.045.135-.045-.045-.135-.09-.135.045-.135.315 0 .315-.225 0-.134-.09 0-.09.09-.18-.18.495-.316.225-.675.405-.36.495-.989.81-1.395 0-.045-.045-.09-.135-.09.27-.135.54-.54.27-.765.405.046.315-.225.225-.405.18-.09.135.09.225 0 0-.135.135-.226-.09-.18.045-.09.045-.18.135-.18.045.045.09 0 0 0 .225-.315.225-.495.405-.765 0 .09.045.135.09.135.09-.09.09-.18-.09-.135.045-.135.135-.226.135-.315.09 0 .045.134.135.134.135-.224.045-.224-.045-.404.36-.405.765-.675.945-1.26-.045 0-.09-.09-.09.045-.135-.315.45-.765.36-1.08.225-.225.36-.54.63-.72-.045-.135.135-.225 0-.225.135-.18.495-.09.36-.36.27-.135.63-.045.81.135 0 .045.045.135-.09.135.045.045.09.09.09.045.09.09.045.225.045.45-.225.405-.18 1.08-.63 1.305.09.09.09.315-.09.315.135.045.09.225.09.405-.45.81-.585 1.935-1.17 2.655-.09.09.09.09.045.225-.585.54-.45 1.576-1.08 2.205v.36c-.315.45-.405 1.17-.9 1.755.18.63-.585.99-.585 1.8-.54.9-.765 2.115-1.305 3.015 0 .045-.045.09.045.09-.36.855-.72 2.205-.99 3.375-.315.585-.495 1.395-.72 2.114-.315.27-.405.676-.585 1.216-1.035 1.619-1.98 3.284-4.005 4.049-.36 0-.495-.045-.675-.135-.09.045-.045.27-.09.45-.945-.495-1.665-1.215-2.295-2.025 0-.09.135-.045.135-.09l-.855-2.07c0-.36-.18-.54-.18-.81.09 0 .045.135.135.135.09-.135-.09-.45-.135-.63-.09 0 0 .179-.09.224-.045-.224-.315-.99-.045-.99-.045-.09.045-.404-.135-.495.045 0 .045-.045.045-.09-.045 0 0 .044-.045.09-.36-2.295.18-4.635.045-6.525.18.045.045-.18.135-.135.495-3.599 1.53-6.525 2.025-9.945-.09 0 0 .224-.18.18 0 .63-.54 1.169-.54 1.98-.135.135-.18.405-.36.585.09.406-.27.675-.405 1.035-.045.18-.045.45-.135.674-.135.36-.405.63-.585.945-.225.54-.495 1.17-.765 1.71-.045.135-.225.18-.36.361-.36.585-.54 1.44-.99 1.98-.09.135-.27.18-.27.45-.405.45-.72.99-1.125 1.53-.27.09-.495.315-.675.54-.181.045-.36.09-.495.225-.18 0-.45 0-.541.134-2.249-.359-4.275-1.349-4.23-4.184 0-.135-.045-.18-.09-.27-.045-.944.09-1.935-.045-2.7.315-.585.18-1.53.405-2.16.09-1.395.495-2.879.765-4.184.09-.54 0-1.08.225-1.35.27-.09.54-.045.675.135.18 0 .18-.225.27-.09.36.135.495.405.99.27.315.36.225.855.36 1.304-.09 0 0 .226-.045.316.45 2.475-.675 5.175-.72 7.604-.18.945 0 1.891-.18 3.015.72-.135 1.035-1.035 1.395-1.62.09 0 .135.045.09.18.63-.72.99-1.71 1.575-2.43 0-.045 0-.045-.09-.045.045-.135.225-.09.27-.18.045-.134-.181 0-.135-.134.224-.181.224-.585.539-.63-.18-.09.046-.225.09-.27.315-.451.54-.991.765-1.306.45-.81.81-1.484 1.215-2.294.135-.045.135-.18.27-.135 0-.091-.09-.046-.09-.135 1.17-2.25 2.385-4.32 3.735-6.39-.135-.495-.315-1.08 0-1.485.585.225 1.26 0 1.62.405.18-.09.405.136.36-.045.36.181.585.54.9.721.135.45.36 1.17 0 1.665.045.09.135.18.09.315-.405 1.305-.18 2.745-.765 3.915-.045.135.18.045.09.18-.135.27-.315.99-.225 1.215-.315.36.045 1.035-.45 1.35.225.135 0 .45-.135.585 0 .09.135.09.135.18-.045.136-.09.27-.18.406-.225 1.71-.45 3.465-.945 4.995-.09.99-.045 2.16-.27 3.06.09.809 0 1.62-.09 2.34-.135 1.62 0 3.15.18 4.77.18.225.225.585.27.9.45-.135.765-.405 1.035-.63.045-.135.09-.179.09-.315 1.35-1.35 1.935-3.465 2.835-5.175.09-.135-.135-.044-.09-.18.18-.045.225-.18.18-.405.675-.9.855-2.205 1.484-3.06-.045-.18.18-.405.18-.63h.044c.045.135-.044.135-.044.27z"/><path d="m90.673 26.264c.18.045.045-.136 0 0-.18-.045 0 .135 0 0zm-.09 1.8h.09v-.09h-.09zm-1.845 2.925h.09v-.09h-.09zm-.045 2.115c.045-.045.09-.27 0-.315.045.179-.225.224-.09.36 0-.045.09-.045.09-.045.045.045.09 0 0 0zm-.27.45c.09 0 .09 0 .135.045 0-.179.18-.224.09-.405h-.18c0 .045 0 .09-.045.135.315 0 0 .09 0 .225zm-.045.091c.09-.046 0-.046 0 0-.045.045 0 .045 0 0zm-.135-3.735c.045 0 .09 0 .09-.046 0 0-.09 0-.09.046zm-.585 1.305c0-.045-.045 0 0 0 .045.045.09 0 0 0zm.09 4.14c0 .045-.045.09-.135.09.045-.044.09-.09.135-.09zm-.18.405h-.135c.045-.045.045-.09.045-.135.09 0 .09.046.09.135zm-.225-2.43c-.18.225.225-.09 0-.045zm-.63 3.69c-.135-.09.09-.18.09-.27.18.09-.045.18-.09.27zm-.045-3.42c.045 0 .135 0 .135-.045-.045 0-.135 0-.135.045zm-.045 3.51c0 .045 0 .045-.044.045 0-.045 0-.045.044-.045zm-.044.045c0 .045 0 .045-.046.045 0-.045 0-.045.046-.045zm-.091.18c-.044 0 0-.09 0-.135h.045c0 .045 0 .09-.045.135zm.091.135c0 .045-.046.09-.135.09.044-.045.09-.09.135-.09zm-.046-3.96v.136c-.045 0-.045-.091-.135-.091 0-.045.09-.045.135-.045zm-.135.045c0 .045 0 .045-.045.045 0-.045 0-.045.045-.045zm-.045.091v-.046c-.044 0 0 .046 0 .046zm-.09-.136c-.09-.045 0-.225.09-.18.045.135-.09.09-.09.18zm.046 4.095c0 .09-.181.045-.136.18.136 0 .27-.135.136-.18zm-.226-2.925c.045 0 .09 0 .09-.045 0 0-.09 0-.09.045zm.09-1.034c0 .045-.045.045-.09.045 0-.045.09-.045.09-.045zm-.045.134c0 .09-.09.135-.135.27-.135-.045.045-.18 0-.27zm-.404 1.035c0-.045.09-.045.09-.045.045-.09-.045-.09-.045-.135.09-.045 0-.045 0 0-.09-.09-.09.18-.044.18zm-.316 4.635c0-.225.09-.27.27-.361-.045.181-.09.316-.27.361zm.135-3.779c-.045.09-.18.09-.18.224.135 0 .27-.18.18-.224zm-.27-.451c-.089-.045.09-.27.135-.315.046.181-.09.225-.135.315zm-.315.451c0-.136.135-.09.09-.27.136 0 .136.315-.09.27zm.046 4.274c-.135-.044-.18.225-.046.225-.045-.135 0-.135.046-.225zm-.135.27c-.045-.044-.135-.134-.18 0 .09-.044.18.136.18 0zm0-4.094c-.09-.135 0-.09-.18-.045.046-.135.09-.225.18-.27.044.18.09.18 0 .315zm-.27.27c.044 0 .09 0 .09-.045 0 0-.09 0-.09.045zm-.18.63c.18-.135-.09-.36-.135-.135.18-.09.045.135.135.135zm-.495.81c-.044.045-.27 0-.27.135.135-.045.27-.045.27-.135zm-.27.36c.135-.27-.18-.135 0 0 .045.045.09 0 0 0zm.09 4.23c-.09.044-.09-.09-.18-.09 0 .09 0 .224.09.224.045-.045.09-.09.09-.135zm-.18-3.96c0-.045.045-.225-.046-.225 0 .135-.18.09-.18.27.135 0 .09-.09.225-.045zm-.585 6.165c.135 0 .135.135.045.18h-.045zm-.225.54c.044-.09.09-.136.09-.18.135.045.045.225-.09.18zm.044-5.715h-.09c.135-.225.18-.54.404-.63-.044.09-.09.135-.09.27-.09.09-.18.316-.225.361zm-.044.09c-.18.045-.135.315-.315.36.09-.135.135-.36.27-.45.045.045 0 .09.045.09zm-.361.81c-.18.225.225-.09 0-.045zm0 5.804c-.135 0-.18.045-.224.135.135 0 .224 0 .224-.135zm-.45-5.264v-.045c-.045 0 0 .045 0 .045zm-.45.495h.09v-.09h-.09zm-.09.675c-.045.09.18.135.134.045-.044 0-.044-.045-.134-.045zm-1.35 2.205c-.045.045 0 .18.045.225 0-.045.045-.225-.045-.225zm-.495 1.17c.045 0 .045.046.045.091-.045.044 0 .044 0 0 .09 0 .09-.045.09-.136.09-.045 0-.045 0 0-.045 0-.135 0-.135.045zm-4.95 8.73c0 .045-.045.045-.09.045 0-.045.09-.045.09-.045zm-.36-.225h-.09v-.09c.09 0 .135 0 .09.09zm-.225-.226c.09 0 .135.045.135.136-.09 0-.135-.045-.135-.136zm-.315-8.864c.045 0 .09.046.09 0s-.045-.045-.09 0zm-.27 6.93c-.045 0-.135 0-.135.09.09 0 .135-.045.135-.09zm-.225-4.904c.044 0 .09 0 .09-.045 0 0-.09 0-.09.045zm-.045 3.825c.045 0 .09 0 .09-.045 0 0-.09 0-.09.045zm3.825-38.383c0 .18-.135.27-.18.45-.18.09-.27.315-.495.405-.585 1.215-1.44 2.205-1.98 3.51-.45 1.26-.854 2.7-1.17 4.275.045.854 0 1.889.36 2.654 2.115-3.149 4.32-6.209 5.58-10.169.045-.585.135-1.17-.045-1.755-.36-.09-.405-.405-.72-.405-.495 0-.9.81-1.35 1.035zm-3.735 38.248c.045-.135-.09-.18-.135-.045.09 0 .09 0 .135.045zm-.179-1.575c0 .045-.046.045-.091.045 0-.045.091-.045.091-.045zm3.914-6.525c.09.181-.045.315-.135.406.09.945-.27 1.844-.63 2.925.18.044-.045.225.135.225-.225.27-.09.585-.27.855 0 .045.09.045.135.045-.045.63-.09 1.349-.315 1.845.18.315.045.45-.045.72.09 0 .135 0 .09-.09.045.495.225 1.395 0 1.665 0 .045.09.045.135.045-.045.18-.045.09-.09.27.045 0 .225 0 .135.225.99-1.485 1.89-3.06 2.61-4.815.09.045.135.225.18.045.09-.045 0-.045 0 0h-.09c-.045-.135.135-.09.18-.09.045-.225-.135 0-.135-.18s.09-.045.18-.045c.09-.135.18-.315 0-.405.225-.315.315-.63.495-.99.09 0 .135.045.18.045-.18-.495.27-.675.315-1.125.09.045.18.135.09.225.54-.405.63-1.305 1.035-1.845 0-.045-.045-.09-.09-.09.27-.045.18-.406.405-.495.09.09.044.135-.045.18h.135c.09-.135.045-.225-.135-.27.045-.136.09-.045.225-.045 0-.046 0-.09-.044-.135.135 0 .09.089.18 0-.18-.045.09-.226-.136-.226.046-.224.27-.224.27-.45.045 0 .045-.045 0-.045 0-.18.27-.405.045-.495.135-.045.135-.09.27-.045 0 .09-.09.18.045.224-.045.136-.09-.045-.18.046 0 .09.135.045.09.18-.045-.045-.045-.045-.135-.045 0 .09.09.09.045.18.135 0 .269-.27.18-.361 0-.269 0-.674.225-.539.045.135-.135.045-.18.135.044.045.09.09.09.135.315-.27.585-.765.585-1.171.27-.09.225-.314.405-.359-.046-.18-.18-.09-.316 0 .27-.315.316-.855.72-.99-.135-.135 0-.405.181-.495 0 .225-.091.36-.091.495.091-.045.361-.27.136-.315.044-.09.179-.09.135-.225.09 0 .135-.045.135-.09.044-.09-.18 0-.135.09-.09-.09-.09 0-.18.045.135-.405.494-.585.539-1.035.81-.045.901-1.17 1.215-1.845.045.09.135.09.09-.045.045 0 .09.045.09.09.225-.27.18-.495.405-.764.045.045.135.045.135.089.045 0 .045-.044.045-.089.046 0 .046-.091.046-.136-.046-.09-.181-.09-.181-.225.09 0 .09.045.09.136.135-.226.27-.136.27-.495-.135 0-.135.09-.135.225-.09 0-.044-.136-.135-.136.315-.63.585-1.304.99-1.8.135-.315.135-.719.405-.899 0 .18-.18.27-.09.404-.09.046-.135.27-.135.406.405-.18.27-.81.315-1.125.225.18 0-.18.18-.315.09 0 .045.09.09.09.135-.09-.09-.135-.045-.315.09 0 .135.044.135.089-.045.046 0 .046 0 0 .135-.045-.045-.134-.045-.27.135 0 .09-.179.18-.179.045.045.09 0 0 0 0-.136 0-.225.135-.225.045.134.045.134-.045.225h.135c.045.045.09-.36-.09-.315.045-.045.135-.09.09-.225.135.09.135.135.09.36.09-.09.18-.18.09-.315.09 0 .09.045.135 0 0-.09-.09-.181-.09-.315.135 0 .045.18.135.18.135-.18-.045-.316 0-.495.09.179.135.045.225.179.135-.045 0-.179 0-.269.045 0 .045.045.09.045.045-.135-.09-.135-.135-.225.27 0 .27-.27.54-.36.045-.18-.045-.315.09-.45.18.045 0 .135.135.18.18-.09.09-.225.045-.315.18-.135.27-.315.495-.36 0-.045-.045-.09-.135-.135.36-.36.63-.54 1.125-.675.18.09.315.18.45.315.045.135-.18.18 0 .224 0 .09-.18 0-.225.09 0 .09.135.045.09.135-.54 1.125-1.485 2.52-1.89 3.825-.045 0-.09.045-.18.045.045.134.18.134-.09.134-.045.136.09.136.135.18-.09.63-.675 1.035-.675 1.62h.135c-.09.09-.225.136-.36.18 0 .09.18.045.18.09-.135.046-.225.136-.36.18.045.135.09.045.18.045-.135.585-.315 1.26-.765 1.665.09-.18.135-.359.18-.54-.18.225-.225.63-.495.766.045.044.09.044.135.09-.045.09-.18.045-.225.18.27-.136 0 .18.18.135-.045.045-.09.09-.135.18-.09 0 0-.18-.045-.27-.225.226-.27.675-.585.811.045.494-.63.855-.584 1.395-.225-.045-.135.405-.316.315 0 .135.046.18.18.18.044.225-.18.45-.316.27.045.135-.045.135-.09.225.045.135.09-.045.18 0-.09.135.045.135-.045.27-.18.045-.09-.18-.27-.135-.36.54-.764 1.305-.81 2.07-.405.269-.45.99-.99 1.394 0-.179.18-.134.045-.315-.18 0-.09.27-.135.45-.046 0-.046 0-.091.045.045.045.091 0 .091-.045.045-.045.135-.045.135-.09.225.09-.135.135-.045.405-.044.045-.135.09-.225.134.044.495-.315.855-.54 1.531h-.18c.224.63-.45.989-.54 1.485.044.135.135-.045.225 0-.27 1.08-.945 2.024-1.171 2.88-.135.135-.18.36-.404.405 0 .09.135.045.09.18-.18.045-.09.315-.315.315-.36 1.17-.945 2.025-1.485 3.15-.09.045-.09.18-.27.18-.135.585-.855.945-1.125 1.53-.405.315-.9.54-1.485.675-.09 0-.09-.044-.135-.09-.405.09-.81.135-1.305.045.045-.045.09-.09.09-.135-.18.09-.405-.135-.675-.135.045-.09.09-.09.18-.09-.135-.18-.36-.36-.629-.451-.181-.674-1.035-1.259-.946-2.204h.091c0 .045 0 .135.044.135.135 0 .045-.135-.044-.135-.046-.18 0-.18-.046-.316-.045 0-.045.045-.09.045-.09.045.18.09 0 .18-.27-.225 0-.81-.225-.945.18-.225-.18-.855.225-.99-.045-.225.135-.63-.09-.72.045-.135.09-.225.135-.315-.09 0-.179.045-.225.135-.09-.09-.135-.45.09-.45 0-.18-.044-.225-.135-.45.091 0 .18-.045.18-.09s-.045-.045-.135-.045c.18-.135 0-.359.225-.45-.314-.135-.044-1.034.045-1.44.046-.045.135-.045.135-.09.046-.135-.18.045-.18-.09.315-.181.18-.54.315-.81-.045 0-.089 0-.089.09-.181-.09.044-.135.089-.179 0-.046-.045-.046-.135-.046.046-.134.046-.27.18-.27-.225-.315.18-1.125.315-1.62 0-.09-.045 0-.135 0 0-.136.045-.181.135-.181.495-1.575.855-3.509 1.395-5.039 0-.045 0-.09-.09-.09.225-.135.45-.675.27-.9.315-.18.36-.675.405-1.08.36-.45.585-1.395.63-1.845h.135c.27-1.215 1.08-2.295 1.215-3.78-.36-1.755-2.52-1.26-3.87-2.07-.18-.135-.495-.495-.809-.27-.225-.09-.405-.225-.63-.36-.09-.585-.404-.99-.54-1.53-.36-.675-.585-1.485-.855-2.25-.316-1.395-.225-2.97.09-4.274.855-3.06 1.935-5.895 3.915-7.785.315-.63.99-.855 1.305-1.485.18.09.405-.135.45-.315 1.665-.224 3.06 0 4.23.81v.136c.359.179.45.63.63.989-.09.45.18.9.09 1.44-.405 2.25-1.08 4.23-2.16 6.03v.27c-1.26 2.34-2.655 4.544-4.095 6.75.495.36 1.125.405 1.71.54 1.665.225 2.835.899 3.375 2.205.18 1.8.045 3.69-.63 4.95-.18.81-.495 1.485-.81 2.16-.27 1.169-.765 2.249-1.26 3.329 0 .72-.45 1.305-.585 2.07.09.27-.09.45-.135.63-.045.045-.135.045-.225.09.09.27.045.45-.09.675-.045.045 0 .045 0 0z"/><path d="m104.128 30.809c0 .135-.045.224-.135.18-.09-.09 0-.045 0-.18zm-.27.72c-.091-.044-.091-.315.09-.27 0 .136-.09.18-.09.27zm-7.199 4.32h-.136c-.045-.09 0-.09.045-.179.091 0 .091.09.091.179zm-3.555-4.229v.045c-.045 0-.045-.045 0-.045zm1.575-6.029c-.675.044-.9.54-1.44.674-.406.855-1.08 1.395-1.395 2.34-.45.27-.495.855-.81 1.215-.045.135.045.18.045.27-.405.585-.405 1.305-.855 1.89.09.36-.045 1.125-.225 1.305.045.27.045.406-.09.585.18.54 0 1.261.405 1.575 1.26-.9 1.935-2.431 2.79-3.78.99-1.71 1.125-4.14 1.575-6.074zm3.195-.046c.09.18.09.27.18.36-.27.45-.09.945-.45 1.305 0 .09.135.045.135.09-.135.765-.09 1.71-.405 2.25.045 1.62-.54 2.7-.585 3.96-.27.225 0 .495-.225.675.045.361.136.72-.134.946.044.359 0 .719.134 1.304.045.225-.179.18-.134.36 0 .135.09-.045.179 0-.09.18-.269.495-.224.63s.045-.09.179-.044c-.045.719-.045 1.349-.27 1.844l.136.54c-.226.045-.136.135-.181.315.045.135.091.045.27.045-.315.404.225 1.259-.27 1.62.225.27.181.764.091 1.079.36.406.135.946.585 1.306.54-.36.72-1.125 1.124-1.665l.81-1.98c.675-1.125.9-2.745 1.53-4.005 0-.045 0-.09.045-.09.09-.765.405-1.35.54-2.069.225-.495.45-.99.585-1.62.135-.09.09-.359.27-.404-.045-.045-.045-.09-.045-.181.135-.044.09-.225.225-.315-.18-.675.675-1.215.495-1.98h.134c.631-1.755 1.621-3.15 2.52-4.68.45-.225.675-.719 1.395-.719l.27.495c-.315.18-.315.63-.585.81.044.315-.045.991-.54 1.08-.09.09.044.135 0 .27-.585.495-.495 1.349-1.125 1.71 0 .315-.09.855-.315 1.035a1.33 1.33 0 0 1 -.496 1.125c0 .09.136.045.181.09-.225.225-.27.54-.181.855-.09 0-.09-.134-.179-.045-.046.18.135.136.135.27-.405 1.035-.63 2.25-1.081 3.06 0 .09.091.225.046.27-.225.225 0 .63-.27.855.045.45-.046.945-.315 1.26-.045 1.215-.765 2.16-.99 3.33-.585.9-.675 2.07-1.44 2.835-.045.945-.945 1.395-1.26 2.205-.495.27-.81.9-1.439.855-.045-.179 0-.225-.045-.45-.18.045-.09.36-.09.495-3.195-.45-3.555-3.914-3.96-6.84l.091-4.095c-.36.27-.451.765-.99.855-.09.135-.18.225-.27.315-.45.135-.764.225-1.169.135-2.16-.315-3.6-3.105-3.195-5.895 0-.134.135-.09.18-.18-.135-.27.09-.315 0-.54.72-2.295 1.89-4.5 3.51-6.075v-.225c.405-.134.629-.404 1.17-.18.405-.315.9.046 1.439.046 0-.09-.09-.09-.135-.136.404 0 1.035.315 1.35.406.091-.046 0-.225.045-.36.406-.27 1.035-.135 1.486.09.45-.09.855.224 1.26.27-.18.54.585.54.27 1.125zm49.003 2.699c-.09.135.135.135.135.045-.09 0-.09-.045-.135-.045zm-.495-1.485c-.09.045-.225-.045-.18.09.09.045.136 0 .18-.09zm.045.585c0-.18-.406-.135-.36 0zm-.406-.405c-.045-.225-.315-.09-.36 0 .18 0 .18.09.36 0zm-.494.63c0-.045-.045-.09-.09-.135-.045.135-.225.045-.18.18a.21.21 0 0 0 .27-.045zm-.406 0h-.134c0 .135-.09.09-.09.18.135.045.179-.045.224-.18zm-.359.45c-.09.09 0 .09 0 .18-.09 0-.09-.09-.18-.135-.045.044-.045.18-.135.135-.315-.18-.451.224-.675.224v-.134c-.18.225-.495.27-.72.405.135.225-.045.09-.045.315.045 0 .09.046.135.046.225-.405.675-.495 1.125-.631 0-.089-.089-.134.046-.179.045.09.045.179.179.135.27-.135.541-.135.945-.27 0 .09-.09.09-.045.136.361-.36.721-.27 1.17-.63-.765.135-1.215.18-1.71.495l-.09-.09zm-2.07 9.449v.135c-.09 0-.09-.045-.136-.09 0-.045.046-.045.136-.045zm-.18-7.469c.044-.045.044-.136.18-.136 0 .136-.09.18-.18.136zm.135-1.08c0-.045-.045-.09-.135-.09v.09zm-.406 5.67c.045 0 0-.044 0 0-.089.045 0 .09 0 0zm-.27 3.24h.09v-.09h-.09zm.046-8.595c-.046.09-.135.09-.046.18.18-.045.315-.136.63-.136.045-.089.135-.179.225-.315-.315 0-.405.226-.54-.045-.18.135-.54.135-.585.36.136.046.27-.134.316-.045zm-.18 8.685c-.09.045-.225-.045-.18.09.09.045.135 0 .18-.09zm.045-8.504c-.09 0-.135 0-.135-.045-.046.09-.18.179-.046.225.046-.046.136-.046.18-.18zm-.225-.18c-.135-.134-.315.09-.18.18.09 0 .18-.045.18-.18zm-.541-1.035h.091v-.09h-.091zm-.135 1.665c.135-.18.405 0 .495-.315-.225.046-.315.181-.54.136 0 .09-.045.18.045.18zm-.27 5.355v-.134c.135-.046.135.224 0 .134zm-.18 3.78s.09 0 .09-.045c-.045.045-.09 0-.09.045zm-.27-3.914v-.136c.135-.045.135.225 0 .136zm.18-5.49c-.09.135-.18.27-.27.36.27-.045.495-.135.675-.36.09.09.269.045.225-.135-.135.045-.225.045-.225.135-.225 0-.27.09-.405 0zm-.135.495c-.18.045-.27.09-.405 0 .045.18-.045.18-.09.226.135-.045.45 0 .495-.226zm-.765 9.18s.09 0 .09-.045c-.045.045-.09 0-.09.045zm.315-9.18c-.135-.045-.36 0-.315.136.09 0 .225-.045.315-.136zm-.18.27c0 .18-.315.09-.27.27.09 0 .495-.135.27-.27zm-.225-.134c-.405-.091-.585.36-.81.494.27-.09.585-.224.81-.494zm-.945.449c-.045.181-.495.27-.27.406.09-.225.27-.045.405 0 .135-.135.63-.225.585-.495-.27.134-.405.315-.72.315-.045-.09.18-.135 0-.226zm-.585 9.45c.135-.045.361-.045.45-.225-.225.09-.225.09-.45.09zm.27-8.91c-.135.136-.315-.045-.36.18.18.09.315.045.36-.18zm-1.845 6.39v.045c-.044 0-.044 0 0-.045zm-2.16-23.264c-.27.225-.225.675-.36.945.27-.09.36-.675.36-.945zm-1.35 23.534c.135.045-.045.225.225.225.361-.45 1.125.135 1.71 0 .09 0-.09-.09.09-.135.494.18.72-.225 1.214-.27 0 .135.36.09.27-.045.045 0 .045.045.09.045.36-.135.585-.405 1.08-.45-.045 0-.045-.045 0-.045l1.845-.9c.18 0 .27-.09.405-.225.045.135.09-.09.225-.045.765-.585 1.665-.99 2.294-1.8.315-.136.495-.405.81-.63-.044-.135.18-.135.09-.27.225.09.179-.18.405-.225.045-.136-.18 0-.09-.18.179 0 .27-.044.225-.27.45-.225.72-.674.99-1.17.315.045.27-.315.45-.495.225-.27.585-.585.81-.9.045-.045-.045-.18.045-.27.361-.27.675-.855.946-1.395-.226.091-.18-.089-.315-.134-.136.315-.765.405-.946.18 0 .45-.585.225-.719.45 0-.09-.045-.135-.09-.135 0 .135 0 .18-.046.224-.18-.224-.27.27-.54.046.045.18-.09.18-.135.18-.811.136-1.621.585-2.34.9h-.225c-.675.225-1.26.9-1.98 1.08-.675.226-1.215.765-1.755.855 0 .315-.315.451-.495.36 0 .18-.09.136-.045.27-.585.181-.675.81-1.26.855-.089.406-.585.451-.674.765-.585.09-.766.72-1.215.675-.27.63-1.079.945-1.079 1.62-.27.18-.225.405-.54.495l-.091.315c.136.045.225.135.27.27-.27 0-.27.18-.135.225s.045-.18.225-.18v.135c-.09.045 0 .09 0 0zm-1.35-4.229c-.09.089-.18 0-.18-.136.09 0 .18.045.18.136zm-.63 1.034c-.18.045-.36.27-.18.315.044-.09.135-.135.18-.315zm-1.71-7.11c0-.045.045-.045.09-.135h-.135v.09c0 .045 0 .09.045.045zm-.315 3.195c0-.135-.09-.18-.18-.225-.045.18 0 .18-.09.27.135 0 .09-.09.27-.045zm-.45.764c.09 0 .045.136.18.091.135-.225.09-.361.225-.585h-.135c-.045.225-.09.27-.225.135.135.225 0 .18-.045.36zm.135-.674c-.09.045-.18 0-.135.09.045.045.09 0 .135-.09zm-.09-2.115c0-.045-.045-.09-.09-.09 0 .09-.045.135.045.135 0 0 0-.045.045-.045zm-.27 4.05v.315c.225 0 .135-.09.09-.27 0 .045.045.045.135.045 0-.045 0-.136-.045-.181 0-.224.045-.27.09-.585-.135-.09-.135.136-.225 0 .045.225-.045.45.135.585-.045.09-.09.136-.18.09zm.27-1.08c-.135.089-.225-.045-.27.045.09.044.135.134.225.134 0-.045.045-.045.045-.179zm-.315 1.44v.135c.135.09.135-.18 0-.135zm-.135 6.84c-.135-.045 0-.225.045-.316.135.09-.09.226-.045.316zm-.315-5.67c.225-.09.315-.09.45-.27 0-.135-.09-.18-.135-.27-.045.181.045.135.045.27-.225 0-.27.18-.36.27zm-.09-.09c-.045.225.135.045 0 0 0 0 .045-.045.045-.136.045 0 0-.045 0 0-.135-.045-.135.181-.045.136zm-.27 6.885h.091v-.09h-.091zm.001.09c-.045.134.09.09.135.134 0-.09-.09-.044-.135-.134zm.27-.855v-.27c-.135.045-.135-.136-.315-.09.135.18-.045.36.18.45-.045-.18 0-.09.135-.09zm-.315-2.475c0 .09-.09.27.045.225-.045-.045.135-.225-.045-.225zm0-.45c.045 0 0-.044 0 0-.18.09.135.18 0 0zm-.09 3.959c-.045.27.045.27-.09.495.18.135.405-.45.09-.495zm-.045-2.97h.045c-.045-.045.045-.225-.09-.18 0 .09.045.135.045.18-.09.045 0 .09 0 0zm.09-3.78c-.18 0 0-.135-.09-.225 0 0 .09 0 .09-.045-.045 0-.09 0-.045-.045h-.09c-.045.181 0 .226-.045.315 0 .045.18.135.18 0zm-.225 5.265v.405c.18 0 .18-.36 0-.405zm0-1.305s.09 0 .09-.045c-.045.045-.09 0-.09.045zm0-1.44c.135-.045.09 0 .225.045 0-.045-.045-.225.09-.18.045.225-.045.225-.135.27.315.18.315-.27.36-.45-.09.045-.09 0-.135-.045 0 0 .045-.045.045-.09-.135-.135-.225.27-.045.09-.045.225-.405.135-.405.36zm-.135 3.24c.09.27-.09.45.09.585.09.045.09-.045.225-.045 0-.18-.18-.18-.09-.406.18.181.27-.315.09-.179.135.09-.18.09-.09.179-.18.091-.09-.134-.225-.134zm0-4.365c0 .18-.045.18-.045.27.09.045.225-.27.045-.27zm-.045-.09s.09 0 .09-.045c-.045.045-.09 0-.09.045zm.225 3.599c-.09.09-.09 0-.18-.045 0 .135-.09.135-.045.225.09.135.09-.045.225-.045-.09.09-.045.136.045.181 0-.09.135-.54.045-.766-.09.046-.045.27-.18.226-.045.18.135.09.09.225zm-.135 3.96c-.045-.045-.09-.09-.135-.09.135-.045.045-.09.045-.27.18.18-.09-.225.18-.135-.045-.135-.135-.181-.225-.27.315-.045.225-.495.54-.63-.09.495-.36 1.215-.315 1.844-.09 0-.135.046-.135.046-.045-.18-.09-.361.045-.495zm0-6.075c-.135 0-.18.045-.18.09.045 0 .225.045.18-.09zm-.09 1.35c-.045-.09-.135-.135-.18-.225-.09.09 0 .09 0 .225zm-.225.18v.18c.045.045.045 0 .135-.046v-.09c.045.045 0 .09.09.09 0-.09 0-.224-.135-.224-.045.09.045.09.045.135-.09.045-.09 0-.135-.045zm.135-1.08c0 .225-.09.45-.135.585.045 0 .09.09.18.045-.09-.18.045-.18.225-.18-.045-.18-.315-.27-.09-.495h.09c.045-.045 0-.18-.045-.27 0 .135-.18.045-.135.18.045 0 .09.045.09.09-.09 0-.09.09-.18.045zm-.045-.765c.18-.09 0-.27.18-.45-.09 0-.09-.045-.135-.045 0 .135-.045.18-.135.135 0 .18.18.18.09.36zm-.09-.045c0 .09-.09.135 0 .135 0-.045.045-.09 0-.135zm.045 3.78c-.135 0-.18.045-.18.09.09.045.18.09.18-.09zm-.18.315c-.09.179 0 .27.09.36-.045-.181.135-.315-.09-.36zm-.135-1.98h.09v-.09h-.09zm.135 4.41c-.225.045-.135-.18-.135-.359.045.045.09 0 .135-.09h.044c0 .135 0 .27-.044.45zm-.045-5.489c-.045.18-.045.18-.135.315.225.135-.045.54 0 .585.27-.09.18-.585.225-.855.135 0-.044-.18 0 0-.044 0-.044-.045-.09-.045zm-.045 4.365h-.09c0 .045-.045.09-.045.09.045 0 .135.045.135-.09zm-.18-2.474c0 .09.044.045.044 0zm0-.81c.135.045-.046-.225-.046-.09.046 0 0 .09.046.09-.091.045 0 .09 0 0zm.09 1.17h-.09s-.046 0-.046-.045c-.045-.045.18-.045.135.045zm-.09-.9c-.046.045-.046.135-.046.18.135.044.046-.09.09-.18.045.045.09.045.135-.045-.09 0-.045-.135-.135-.135 0 .045-.09.045-.09.045-.045.135.09.09.09.135zm-.091 3.105c.045.136.045.27.135.36.09-.136-.044-.315-.135-.36zm-.18-1.8c.045.044.09.09.225.044 0 .045-.045.09-.045.09-.09 0-.225 0-.18-.135zm-.09 4.95c-.045.18-.135.225.045.27 0-.09.09-.224-.045-.27zm-.09 17.55c0-.045.09-.045.18-.09.045.135-.135.09-.18.09zm.225-21.824c-.045 0-.045-.045-.045-.09-.18 0-.135.181-.225.181-.045-.045-.089.045 0 0v.18c.135 0 .18-.135.27-.27.135.045.09.09.09.18.135.044.18-.09.225-.18-.27-.09.09-.63-.18-.765.135-.18.315-.405.361-.72-.18-.044-.045.18-.135.136-.045 0-.045-.045-.09-.09 0-.135.09-.316-.135-.316.135.27-.225.45-.045.675h-.135c.135.405-.405.765-.09.945.045-.135 0-.18.18-.225-.045-.135.045-.09.09-.18.045.225-.045.405-.135.54zm-.135 2.79c-.045.136-.224.136-.18.27.09.136.315-.134.18-.27zm-.315 2.25c.135-.09.225-.225.225-.495-.09 0-.134 0-.134-.045-.091.045 0 .18-.091.18-.135.044.135.135 0 .36zm-.135-1.44c.045.09.135 0 .315 0 0-.089.045-.225.18-.134a.85.85 0 0 0 -.09-.361c-.09.136-.27.09-.315.18.136.09-.18.135-.09.315zm.045 1.215h-.135c0 .136-.045.225.09.225-.044-.09.045-.09.045-.225zm.045-.855c-.135.045-.135-.045-.225-.045-.09.225.225 0 .18.181-.09.089-.135.179-.27.134 0 .18-.045.18-.045.27.225-.045.135.18.225.225.09-.315.27-.674.27-1.035-.091.09-.316 0-.27.136-.045.135.18 0 .135.135zm-.225 5.76c-.045.044 0 .044.045.044v.181c-.045 0-.045-.045-.045-.135-.09.045-.09.09-.09.135-.135 0-.045-.225 0-.27h.045c-.045.045 0 .045.045.045zm-.225-4.41c0 .181.18.136.225.225 0-.18-.09-.225-.225-.225zm.225 8.19c-.135 0-.09-.179-.135-.315-.09.045-.09.225-.225.136-.045-.045.09-.225 0-.27.09-.045.27-.09.27-.315.27.134-.045.54.09.764zm-.27-6.48c0 .135-.224.181-.09.225 0-.044.18-.135.09-.225v-.045c.045 0 .135-.225.045-.27-.045.18-.135.135-.045.27-.045.045-.045.045 0 .045zm-.045.36c-.045.27-.27.45.045.54-.135-.18.18-.36-.045-.54zm0 1.305c.09-.135-.045-.135-.135-.18v.135c.045 0 .09.045.135.045zm0-3.06c0-.09-.045-.18-.135-.18-.044.045-.135.224 0 .224 0-.045.045-.045.135-.045zm-.225 4.95v.135c.135.09.135-.18 0-.135zm.046-.63c-.136 0-.136.09-.181.135.09 0 .181 0 .181-.135zm-.181-.36c.045.135 0 .135 0 .27.135 0 .181.045.315.045-.135-.315.09-.675.045-1.125-.135.045-.18-.135-.27-.045.18.27-.225.54.091.765-.136 0-.181.045-.181.09zm-.089 5.534c0 .136.044.405.179.226-.135 0-.09-.181-.179-.226zm.044-3.599c-.044.09-.09.09-.09.135.09.18.27-.09.09-.135zm0-.54c.045 0 .045-.135.18-.09 0-.09-.09-.135-.18-.179-.044.09.045.27-.044.225-.046-.135.044-.316-.091-.36-.045.135-.18.135-.18.225.18 0 .135.09.315.18zm-.9-11.789c0 .135-.181.045-.225.045-.044-.09.135 0 .225-.045zm0-.72c0 .135-.181.044-.225.044-.044-.09.135 0 .225-.044zm-.721 23.579c.045-.18.451-.045.675-.09-.091.179-.495.09-.675.09zm18.989-25.379c-.09.045-.045.135-.045.18-.54.225-.9.54-1.215.809-.27-.044-.585.136-.855.181 0 .315.27-.135.27.09-.18.27-.81-.045-1.035.27.045.135.18-.045.225.09-.18.045-.36.27-.63.135-.135.045.045.135 0 .18h-.225c-1.035.764-3.69.81-5.535.54-.451-.405-1.35-.405-1.53-1.125.046 0 0-.045 0 0-.315-.361-.63-.765-.674-1.215-.135-.045-.181-.135-.27-.18 0-.135.18-.09.27-.225-.045-.135-.09.045-.181 0 .091-.27-.179-.135-.27-.36.046-.045.136-.045.225-.089 0-.091-.18-.091-.27-.091-.044-.135.181 0 .226-.135-.045-.18-.315-.18-.27-.45.044.09.09.09.18 0-.045-.045-.09-.045-.136-.045 0-.135.091-.18.181-.27-.09-.045-.181-.09-.225-.225.09-.135.225-.18.09-.36.225.045.09-.315.361-.315-.18-.045-.045-.18.045-.315-.09 0-.09-.135-.225-.135.045-.36.674-.494.81-1.079.315-.046.674-.315.72-.855.27.045.72-.27.855-.585.585-.136.9-.54 1.261-.946.855-.315 1.71-.719 2.429-1.215h.495c.18-.044.27-.225.54-.27.045.18-.135.136-.135.18.045.134.18 0 .27-.045v-.27c.765-.27 1.44-.63 2.07-1.125 2.205-.81 4.185-1.8 6.885-2.25 0 .09-.045.18.045.18 0-.09.27-.495.45-.315.045-.225.63.045.585-.36h.27c.18-.135.135-.54.405-.63.27-.81.495-1.44.9-2.25.585-2.61 1.709-6.885-.136-9.044-.27-.045-.495-.09-.674-.225-.09.045-.136.09-.136.09-.54-.27-.945.135-1.485-.09-2.07.45-3.734 1.35-5.67 2.16a3.58 3.58 0 0 1 -1.214.809c-.54.585-1.35.9-2.025 1.305-.54.45-1.035.899-1.665 1.17-.54.54-1.079 1.035-1.71 1.439 0 .136-.135.18-.09.27-1.17 1.081-1.98 2.476-3.059 3.555v.18c-.54.585-.945 1.485-.99 2.385-.045.18.045.36.045.495-.045.225-.18.45-.225.675-.18.72-.09 1.71-.359 2.07-.09.63-.18 1.62-.54 2.34l-.9 4.455c-.135.045-.045.225-.18.18 0 .135.045.18.09.225-.406 1.26-.675 3.015-.945 4.41-.045-.09-.135-.136-.18 0-.09 0-.09-.09-.135-.18-.405.044-.135.54-.495.584.045.09.135.36 0 .36 0-.179-.09.046-.135-.09-.045.135.045.09.135.09 0 .046 0 .09.045.046-.225.09-.18.36-.495.45-.09.18 0 .136.045.27-.09.045-.135 0-.18-.044v.315c.18.044.135-.18.315-.18 0 .09-.09.09-.045.136s.09-.045.09-.136c0 .405.045 1.17-.315 1.35.405.315-.225 1.26 0 1.53.09 0 0-.179.045-.315.495-.36.18-1.304.405-1.71.09-.179.27-.315.404-.539.045.224.315.09.495.09 0 .225-.36.045-.45.135-.27.675-.315 1.98-.63 2.655-.045.72-.225 1.44-.36 1.89.135.585-.135 1.08-.27 1.62.045.855-.135 1.755-.315 2.43.09.315.09.72-.09.944 0 .27.045.315-.09.406-.135-.045-.18-.136-.09-.27h-.18c.405-.315.27-.99.495-1.395-.27-.045 0-.09-.225-.225 0-.045.09 0 .135 0-.18-.18 0-.36-.135-.675.09-.045.315-.315.135-.405 0 0-.045 0-.045-.044 0 0-.045 0-.045-.045s.045-.045.09-.09c0 .09.045 0 0 0l.765-4.185c.045 0 .045-.045.045-.135-.09.045-.045.09-.045.135-.09 0-.045-.135-.135-.135 0-.044-.045-.044-.09-.09-.09.09-.045.134.09.09-.045.135-.135.135-.18.045.225.36-.09.9 0 1.17-.134.045-.315.045-.404.09.044.36.09.315.09.585h-.135c.09.135-.045.27.18.225-.045.135-.135.18-.09.315-.09 0-.18-.045-.27-.09.27.495-.09 1.26-.044 1.8.044.18-.18.09-.135.18.045.045.09.45-.045.585 0 .36.18.81-.09.855.045.585.045 1.485 0 2.205-.09.045-.044-.54-.044-.765-.181.18-.136.225-.27.36.27.585.27 1.08.134 1.8.225 0 0 .406.225.585.09-.315-.09-.9.135-1.395.091-.045.091.224.18.045.045 0 .045.045.09.045-.225.81-.135 1.71-.27 2.25-.045-.045-.09.045 0 0-.224 1.755.091 3.464-.27 5.084-.315 0-.45.135-.405.405-.09.09-.18.09-.225 0-.09.09-.045.225-.09.27-.72-.135-1.395-.045-1.799-.63-.495.045-1.17-.045-1.261-.54.181-.135.136-.584 0-.765.136.045.181-.045.27-.134 0-.226-.179-.27-.179-.495.09.045.09-.044.224-.044 0-.181-.134-.226-.134-.406.134-.045.089.09.18.09.045-.18-.091-.495-.135-.72.135.045.135-.045.225-.09.18-1.081 0-2.16.27-3.51 0-.09-.135-.135-.09-.27.225-.225.225-1.125.18-1.486.09-.404-.044-.809.18-1.079-.045-.045-.18 0-.135-.18.27-.81.27-1.845.451-2.385-.045-.045-.091-.045-.136-.045.136-.27 0-.495.27-.765-.045-.045-.134 0-.179-.045.27-.315.224-.855.315-1.26-.091-.09-.045-.315-.091-.36 0-.179.225-.315.135-.54.045 0 .045.045.09.045-.18-.18 0-.224.09-.405 0-.045-.09-.134-.045-.27 0-.315.225-.585.135-.945.18-2.25.45-4.41 1.034-6.345.135-1.26.495-2.475.631-3.645.134-1.35.674-2.655.764-4.05.27-.495.135-1.395.45-1.889-.135-.81.496-1.665.36-2.385.36-.675.36-1.575.675-2.385-.045-.045-.09-.135-.09-.27.36-.405.27-1.035.45-1.53-.045-.18-.27.09-.27-.135.045-.045.09.045.27 0 .18-.405.405-.99.405-1.44v-.09c.045.045.135 0 .18-.044.18-1.53 1.08-3.15 1.17-4.68.27-.18.27-.675.45-1.035 0 0-.045-.045-.045 0-.09-.09.135-.09.045-.36.63-.855.63-2.385 1.08-3.465l.135-2.385c.09-.27.135-.675.225-.99 0-.045-.044-.135-.044-.18 0-.09.044-.225.09-.315 0-.089-.09-.089-.045-.27.136-.494.631-.675 1.081-.944.899.18 1.53.585 2.52.63.225.181.495.315.855.406.315.405.855.855.81 1.53a1.28 1.28 0 0 1 -.405.81c-.045.134.045.134.045.225-.585.855-.54 2.115-.945 3.015-.045.18.09.135.09.27-.135 0-.135.135-.225.135-.18 1.35-1.215 2.205-1.53 3.51 2.88-2.295 6.165-4.59 10.079-6.075.09 0 .09-.09.135-.225.72-.225 1.53-.27 2.295-.45.045 0 .135-.09.225-.135.63-.045 1.26.18 1.845.09.09.045.135.09.225.135 4.23.765 4.68 5.85 4.23 9.945-.045.135-.135.226-.135.315 0 .045.09.136.09.18 0 .494-.36 1.755-.495 2.16-.045 1.035-.495 1.665-.766 2.52.18.135.54.09.855.09.99.495 2.34.675 3.195 1.26 0 .225-.136.27-.09.495-.495.09-.63.495-1.26.36-.18.045.09.18-.045.135-1.08-.225-2.295-.451-3.329-.451-.63.136-.495 1.171-.72 1.441-.18.27-.45.63-.405.9-.135.09-.135.27-.315.27.045.18-.046.45-.27.45.045.18-.091.495-.316.495.046.359-.36.63-.405.944-.72.406-.989 1.26-1.484 1.891-.136-.09-.136-.226-.36-.136.18.136-.18.18-.09.315-.135.045-.135.09-.225 0-.135.045.09.09.045.18-.18 0-.27.045-.225.181 0 .134.044-.046.18 0-.27.179-.361.179-.585.315.179.135-.135.27-.316.224 0 .09 0 .135.09.09-.315.27-.585.765-1.035.945-.225.405-.765.721-1.17.81 0 .045.045.09.089.045-.224.225-.315.45-.674.585z"/><path d="m168.162 30.809c0 .135-.045.224-.135.18-.09-.09 0-.045 0-.18zm-.27.72c-.09-.044-.09-.315.09-.27 0 .136-.09.18-.09.27zm-7.199 4.32h-.135c-.045-.09 0-.09.045-.179.09 0 .09.09.09.179zm-3.555-4.229v.045c-.045 0-.045-.045 0-.045zm1.575-6.029c-.675.044-.9.54-1.44.674-.405.855-1.08 1.395-1.395 2.34-.45.27-.495.855-.81 1.215-.045.135.044.18.044.27-.405.585-.405 1.305-.855 1.89.09.36-.044 1.125-.225 1.305.045.27.045.406-.09.585.18.54 0 1.261.405 1.575 1.261-.9 1.935-2.431 2.79-3.78.99-1.71 1.125-4.14 1.575-6.074zm3.195-.046c.09.18.09.27.18.36-.27.45-.09.945-.45 1.305 0 .09.135.045.135.09-.135.765-.09 1.71-.405 2.25.045 1.62-.54 2.7-.585 3.96-.27.225 0 .495-.225.675.045.361.135.72-.135.946.044.359 0 .719.135 1.304.045.225-.18.18-.135.36 0 .135.09-.045.18 0-.09.18-.27.495-.225.63s.045-.09.18-.044c-.045.719-.045 1.349-.27 1.844l.135.54c-.225.045-.135.135-.18.315.045.135.09.045.27.045-.315.404.225 1.259-.27 1.62.224.27.18.764.09 1.079.36.406.134.946.585 1.306.54-.36.72-1.125 1.125-1.665l.81-1.98c.674-1.125.9-2.745 1.53-4.005 0-.045 0-.09.045-.09.09-.765.406-1.35.54-2.069.226-.495.451-.99.585-1.62.136-.09.09-.359.27-.404-.045-.045-.045-.09-.045-.181.135-.044.09-.225.226-.315-.18-.675.674-1.215.494-1.98h.135c.63-1.755 1.62-3.15 2.52-4.68.45-.225.675-.719 1.395-.719l.27.495c-.315.18-.315.63-.585.81.045.315-.045.991-.54 1.08-.09.09.045.135 0 .27-.585.495-.495 1.349-1.125 1.71 0 .315-.09.855-.315 1.035a1.33 1.33 0 0 1 -.495 1.125c0 .09.135.045.18.09-.224.225-.27.54-.18.855-.09 0-.09-.134-.18-.045-.045.18.136.136.136.27-.406 1.035-.631 2.25-1.081 3.06 0 .09.09.225.045.27-.225.225 0 .63-.27.855.045.45-.045.945-.315 1.26-.044 1.215-.765 2.16-.989 3.33-.585.9-.675 2.07-1.44 2.835-.046.945-.946 1.395-1.261 2.205-.495.27-.81.9-1.439.855-.045-.179 0-.225-.045-.45-.18.045-.09.36-.09.495-3.195-.45-3.555-3.914-3.96-6.84l.09-4.095c-.36.27-.45.765-.99.855-.09.135-.18.225-.27.315-.45.135-.765.225-1.17.135-2.16-.315-3.6-3.105-3.195-5.895 0-.134.135-.09.179-.18-.135-.27.091-.315 0-.54.721-2.295 1.89-4.5 3.511-6.075v-.225c.405-.134.63-.404 1.17-.18.405-.315.9.046 1.44.046 0-.09-.09-.09-.135-.136.405 0 1.035.315 1.35.406.09-.046 0-.225.045-.36.405-.27 1.035-.135 1.485.09.45-.09.855.224 1.26.27-.18.54.585.54.27 1.125z"/></g><g><path d="m185.577 6.825h.09v-.179h-.09v.18zm-.359 18.585c-.18-.044-.136.181-.18.226.09 0 .136-.136.18-.226zm-.09-.315c-.136 0-.136.09-.136.18.09 0 .09-.09.136-.18zm-.225 2.655c.045 0 .045.09.089 0 0-.045-.089-.045-.089 0zm.045-.18c-.18 0-.315.36-.09.36-.045-.18 0-.27.09-.36zm-.18.675c0 .045-.045.045-.045.045 0-.045 0-.045.045-.045zm0 .135c.136.045.09-.315.045-.36-.045.09-.225.225-.09.27 0 .045.045.045.045.09zm-.135-1.845c-.09 0-.09-.044-.135-.044 0 .044-.045.134.045.134 0-.045.046-.045.09-.09zm-.045 2.655c-.18-.045-.09.135-.136.18.09 0 .136-.045.136-.18zm-.09-1.26c-.135.09.045.135.09.045-.046 0-.09-.045-.09-.045zm0-.09c0-.045-.045-.09-.09-.09 0 .045-.044.136.045.136 0-.046 0-.046.045-.046zm0 .675h-.09c0 .045-.044.045-.044.09.044 0 .135 0 .135-.09zm-.18-.045c.135 0 .09-.225.27-.225-.09-.09-.136.045-.27 0zm-.09-.765s.09 0 .09-.045c-.045 0-.09 0-.09.045zm.046 1.62c-.18 0-.136.135-.046.18 0-.09 0-.135.046-.18zm0-.585c0-.046 0-.09.045-.136h-.18v.136h.136zm.045.18c-.09 0-.045-.09-.136-.09 0 .135-.134.09-.089.225.089 0 .135-.09.225-.135zm-.225.99c-.045-.135.089-.225-.045-.27-.045.135-.136.135-.136.27h.18zm-.36-17.054s.09 0 .09-.045c-.045 0-.09 0-.09.045zm.135 16.874c-.135 0-.089.09-.18 0 0 .135.045.09 0 .18.135.045.09-.09.18-.18zm-.225.675s.09 0 .09-.045c-.045 0-.09 0-.09.045zm.045-1.26c-.045.045-.09.09 0 .135 0-.045.045-.09 0-.135zm-.315-15.659h-.18c.045.135-.136.18 0 .225 0-.09.225-.045.18-.225zm-.135 15.255c-.045.044 0 .044.044.044v.09c-.09.045-.135.045-.225.045-.045-.135.091-.09.091-.225h.045c-.045.046 0 .046.045.046zm0 2.25c-.136 0-.136.09-.226 0-.044.135.045.314.136.18-.18-.045.135-.045.09-.18zm-.09.314c-.136 0-.091.09-.18 0-.045.09 0 .136.135.136 0-.045 0-.09.046-.136zm-.225 2.025v-.09c.134-.045.045.09 0 .09zm-.09-1.934c0 .135.045.27.179.315.045-.136-.044-.225-.179-.315zm.09-22.904c0 .045-.09.045-.09.045 0-.045.045-.045.09-.045zm-.136 24.21h.09v-.09h-.09zm-.135.72c-.09.135.135.135.135.045-.09 0-.09-.045-.135-.045zm-.09-30.422s.09 0 .09-.045c-.045 0-.09 0-.09.045zm0 28.124c-.18 0-.225.18-.09.225-.045-.09.045-.135.09-.225zm-.18 1.8c0-.045-.045-.09-.09-.09 0 .045-.045.134.045.134 0-.044 0-.044.045-.044zm-.18-.135s.09 0 .09-.046c-.045 0-.09 0-.09.046zm-.045-1.125c-.044.09-.315.135-.09.224-.045-.134.225-.134.09-.224zm-.225.45c-.045.135-.224.225-.179.405.135 0 .27-.27.179-.405zm-.224 3.825s.09 0 .09-.045c-.045 0-.09 0-.09.045zm-.135.63c-.09-.091-.18.045-.225.134.09 0 .18-.045.225-.134zm-.45-2.025h.09v-.09h-.09zm0-.585c0 .179-.135.179-.135.315.135.045.27-.315.135-.315zm-.405 2.745h.09v-.09h-.09zm-.09-22.859h.045c0 .045-.045.045-.045 0zm.09 23.084c0-.09-.045-.09-.135-.09v.09zm-.135-1.44s.09 0 .09-.045c-.045 0-.09 0-.09.045zm-.045 2.294c.045-.044 0-.044 0 0-.09.045 0 .045 0 0zm-.046-1.169h.091v-.09h-.091zm.496.495c-.135 0-.226.09-.135-.046-.09.046-.315-.045-.315.046.18.134-.09.045-.046.179.181.136.406-.045.496-.179zm-.586-.316h.09v-.09h-.09zm-.314-1.709c-.045-.225.135-.18.089-.406.18.045.045.406-.089.406zm.225 3.374c.045-.135-.045-.135.045-.27-.315-.045.09-.27-.135-.36-.09.181-.135.406-.18.54.225-.089.09-.045.27.09zm-.315 2.16v-.09c-.09 0-.135 0-.135-.045v.18c.044 0 .09 0 .135-.045zm-.18 1.125v.045c.045 0 0-.045 0-.045zm.045.27c-.09-.045-.135-.09-.09-.225h.045c-.045.135.045.09.045.225zm.044-2.52c-.09.045-.18-.135-.18 0 .045.045-.045.045 0 .135.09 0 .18 0 .18-.135zm-.09-.72c-.09-.045-.225-.045-.18.09.09 0 .136 0 .18-.09zm-.315 3.96c.045-.045.045-.181.18-.181-.046.136-.09.181-.18.181zm0-6.164v-.136l.135.136zm-.36 6.794c-.18 0-.18.18-.045.225.045-.09-.09-.135.045-.225zm-.27-26.099c.045 0 0-.045.045-.09-.045 0-.045.045-.045.09zm-.18 27.044c-.09 0-.135.045-.135.09.045 0 .09-.045.135-.09zm-3.059-26.549c-.046.045 0 .09-.046.09 0-.045 0-.09.046-.09zm-.136 28.259c.09 0 .045.224-.045.135 0-.045 0-.09.045-.135zm-.09.224c0-.045 0-.09.045-.09-.045.044 0 .09-.045.09zm.09-27.403v.089c-.045 0-.045 0-.045.046h-.089v-.09s.044 0 .044-.045zm-.18.36c-.135-.045.046-.09 0-.18.135.045 0 .09 0 .18zm-.18-.09c.045 0 .045-.09 0-.09zm-.135 28.169c.045-.045 0-.045 0 0-.09.044 0 .044 0 0zm-.045-29.249s.09 0 .09-.045c-.045 0-.09 0-.09.045zm-.09 2.115s.09 0 .09-.045c-.045 0-.09 0-.09.045zm0-1.08c.045 0 .045.09.09 0 0-.045-.09-.045-.09 0zm-.135 2.295c-.045-.09 0-.136.046-.181.045 0 .045.27-.046.181zm-.405.989c-.089-.045-.045-.09 0-.134.045.045 0 .089 0 .134zm-.089-7.289c.044 0 .044.09.089 0 0-.045-.089-.045-.089 0zm0 4.185c0 .09-.045.18.044.18.045-.045.045-.18-.044-.18zm-.09.315c-.09.135.135.135.135.045-.089 0-.089-.045-.135-.045zm0 3.285c-.09-.045-.045-.09 0-.135.046.045 0 .09 0 .135zm.046-5.219c-.136 0-.225.045-.181.18.09 0 .135-.045.181-.18zm-.27-3.24c-.046.045-.136.18 0 .18-.046-.09.135-.135 0-.18zm-.09 4.185c-.135-.045-.225.135-.09.18 0-.09.09-.045.09-.18zm.045-2.205c-.09-.09-.179.045-.225.135.135.045.18-.045.225-.135zm-.09-1.35c-.135 0-.135.09-.135.181.135.044.045-.136.135-.181zm-.089 5.22c-.18-.045.044-.135.135-.09 0 .224-.135-.045-.135.09zm-.09-1.35c0 .09 0 .18.09.225.044-.045.044-.27-.09-.225zm-.046-4.95h.09v-.09h-.09zm-.045 1.576h.09v-.091h-.09zm-.135 4.995c.044-.09.044-.27.225-.27-.136.09 0 .225-.225.27zm.315-1.215c-.09 0-.045-.045-.045-.135h-.135c-.045.18-.135.27-.18.405.18 0 .225-.18.36-.27zm-.406 3.555c.046 0 0-.045.046-.09-.046 0-.046.045-.046.09zm0-2.79c0-.044.046-.044.091-.089 0 .045-.045.089-.091.089zm.046.091c0 .045-.09.045-.09.045 0-.045.045-.045.09-.045zm-.675-.045c.045 0 .045.09.09 0 0-.046-.09-.046-.09 0zm.18-.765a.36.36 0 0 0 -.405.315c.18-.045.315-.136.405-.315zm-.36-1.125c-.046.09-.09.18-.046.315.136.045.225-.36.046-.315zm-.225 3.285h-.091c0 .046-.045.046-.045.09.045 0 .136 0 .136-.09zm-.045-.764c-.046-.225.27-.136.315-.361-.045 0-.09 0-.045-.045h-.09c.045.225-.18.18-.315.18 0 .134.045.18.136.225zm-.046-.72h-.135v.135c.09.045.09-.091.135-.135zm.091-.855c-.091 0-.136-.045-.181-.045 0 .18-.134.27.045.36-.045-.18.09-.18.136-.315zm-.181 11.79c0-.09-.045-.09-.134-.09v.09zm.045-8.459c0-.136-.09-.091-.135-.136 0 .045-.045.09-.045.136h.179zm3.96-6.705c0 .135-.09.09-.135.045.135.315-.046.54-.136.81.136.225.09.54-.135.675.135.27-.36.225-.27.54h.18c0 .09-.09.135-.045.27-.09.09-.135-.045-.179.09-.09.225 0 .63-.226.81-.18.045-.044.27-.044.405-.27 0-.045.09-.045.18-.135 0-.225-.045-.27-.091-.046.181.135.091.18.181-.315.045-.18.405-.405.359 0 .226-.09.27.045.406.135-.09.27-.225.18-.405.135 0 .225-.089.315-.179-.135-.091.044-.405.18-.63.09.18-.18.855-.225 1.035-.045 0-.09-.18-.135-.045.09 0-.089.134 0 .27-.18.045-.18-.09-.225.045.045 0 .09.09.09.18-.09.135-.225.045-.315.09.09.315-.135.495-.045.72-.09 0-.09-.046-.179-.046 0 .27-.226.631-.495.765-.044.134.045.134.09.225-.225 0-.09.225-.09.36-.225.27-.359.63-.63.81a.39.39 0 0 0 0-.315c.225-.136.179-.495.495-.585-.09-.09-.136.045-.27 0-.046-.27.495-.361.27-.585.225-.045.135-.27.315-.315 0 .09.045 0 0 0-.046-.18.179-.091.179-.27-.135 0-.27 0-.315-.045a.36.36 0 0 1 -.315.405c0 .18-.045.359-.225.315.18-.09.09-.18 0-.36.045-.045.225-.045.27-.136-.09 0-.045-.09-.045-.18.136.045.136-.045.09-.135.495-.09.09-.81.495-.99l-.09-.405h.135c0-.089 0-.224-.045-.314-.09.044 0 .225-.09.225s-.27.045-.225-.09c.045-.045 0-.045 0 0-.18 0-.09.225-.18.27h-.179c0-.091.135-.135 0-.18 0-.181.225-.135.225-.36-.09-.045-.316.045-.406.09.045.045.09.045.09.135-.27.45-.135.675-.179 1.17-.09 0-.09.045-.09.09 0 .18 0 .134.046.315-.181 0-.136.225-.136.405-.09 0-.09-.09-.135-.09-.18.45-.136.72-.315 1.08.09.225 0 .27 0 .495.045.09.09-.046.135.045-.09.225-.135.54-.359.72-.045-.045-.091 0 0 0 .089.18-.045.225-.136.315.18.091-.045.046 0 .225.09.045.09-.045.18-.045-.044.135-.044.09 0 .226-.09-.045-.135-.045-.18 0-.045.225-.09.27.045.405-.09 0-.179 0-.179.045.135.091-.09.675-.045.81.404-.36.674-.765 1.034-1.125-.09-.045-.09-.09-.09-.18.181-.181.226-.315.451-.54-.09 0-.27.045-.27-.045.089 0 .089-.136.179-.18 0 .09-.045.135.045.135.046-.045.046-.09 0-.18.135.045.135-.045.135-.18-.135 0-.135.09-.135.18-.135 0-.045-.135-.045-.225.136-.045.27-.135.405-.225-.045-.134-.09-.225.045-.36.135.404-.09.585.135.899.945-1.08 1.665-2.295 2.61-3.329.046.045 0 .09 0 .135.135 0 .27-.27.135-.36.135-.09.18-.54.405-.315l1.89-2.88c0 .09-.09.09-.045.18.135-.045.135-.18.27-.27-.135 0-.09-.09-.18 0 .09-.36.36-.72.495-.945.045 0 0 .09.09.09.45-.585.674-1.395 1.125-1.98-.045-.27.405-.495.179-.675-.045.09-.045.18-.134.18.674-1.169 1.214-2.52 1.844-3.825.046-.405.27-1.035.54-1.395-.224-.091.045-.136 0-.361.045.046.045 0 .136 0 0-.27.225-.585 0-.719.045 0 .225-.09.09-.135-.044.045-.044.045-.044 0 .135-.54.18-1.485-.27-1.71.089-.135-.18-.135-.226-.27.045 0 .045 0 .091-.045-.225-.045-.27-.225-.27-.45-.27-.045-.361-.045-.585.045 0-.09.135-.09.045-.18-.675.18-1.17.54-1.395 1.125-.54.495-.99 1.08-1.215 1.8-.27 1.485-1.17 2.655-1.755 3.915.045.315-.18.36-.225.54h-.135c-.18.495-.18.99-.45 1.305-.045.9-.585 1.395-.765 2.295-.045-.045-.09 0 0 0zm-4.23 15.209c.046-.045 0-.045 0 0-.09.044 0 .044 0 0zm.091-8.864c0-.135-.136-.18-.136-.046.045 0 .09.046.136.046zm-.315.405c-.09.135.135.135.135.045-.089 0-.089-.045-.135-.045zm-.09 10.754s.09 0 .09-.044c-.045 0-.09 0-.09.044zm.136-12.059c-.045.046-.045.046-.09 0 0 .136-.045.225-.045.316.09 0 .18-.27.136-.316zm.359 1.62c-.225.18-.54.18-.584.495.314 0 .629-.225.584-.495zm-.359.765c-.09 0-.045-.136-.136-.136-.045.045-.089.045-.135.045-.045.136.135.091.09.27.135 0-.044-.225.225-.09a3.92 3.92 0 0 1 .225-.36c-.091 0-.136.045-.181.045-.089.044 0 .225-.089.225zm-.18 6.839c0-.089-.135-.089-.135-.18 0 .09-.136.045-.09.18.09.091.045 0 .225 0zm-.135-.899c0-.09-.045-.09-.136-.09v.09zm-.045-9.765c-.09.091-.09.316-.135.406-.09.045 0 .045 0 0 0 0 .045.045.09.045.045-.135.18-.315.09-.451.135-.044-.045-.224 0 0zm-.09 4.5c.09-.044.226-.089.36-.134 0-.136-.135-.136-.18-.18 0 .18-.27.09-.27.226.044 0 .089 0 .089.089zm-.089 14.805c-.045.09.18.09.135 0-.045-.045-.135-.045-.135 0zm.18-7.29h-.135c0 .135-.09.135-.09.225.09 0 .225-.045.225-.225zm-.27 4.95s.09 0 .09-.045c-.045 0-.09 0-.09.045zm0-.9v-.135c.135-.045.135.225 0 .135zm0-5.67c-.225.27.179-.09 0-.045zm.045 20.654c-.045.09-.136.045-.136 0s.091-.045.136 0zm.18-18.675c-.09 0-.09-.044-.135-.044-.045.225-.181.225-.181.45.27.045.225-.225.315-.406zm-.36-6.254h.09v-.09h-.09zm0-1.665s.09 0 .09-.045c-.045 0-.09 0-.09.045zm.09-2.43c0-.045-.045-.09-.09-.09 0 .045-.044.136.045.136 0-.046 0-.046.045-.046zm.225 3.33c0-.045 0-.045.09-.045v-.18c-.09-.045-.135-.045-.225-.045 0 .225-.18-.045-.225.136.27.045.315-.046.359.134zm-.315 6.12c0 .09-.044.18.045.18 0-.09.045-.09.181-.09 0 .135-.045.18-.09.224-.091 0-.136 0-.18.046-.045.09 0 .18.089.18.045-.18.136-.045.27-.18-.045-.225-.089-.54.226-.63-.045-.18-.18-.135-.27-.045.045.135-.044.27-.27.315zm-.044 16.515c0 .045-.045.045-.045.045h-.09c.045-.045 0-.181.135-.136-.045.045-.09.09 0 .09zm.27-13.005c-.045-.09-.045-.18-.136-.18-.045.18-.225.18-.269.315.224.044.135-.136.405-.136zm.044-1.8c.045-.09.225-.179.135-.314-.27.18-.54.044-.63.314.136-.09.27-.044.495 0zm0-7.604c-.225 0-.18.134-.315.044.089.181-.045.181-.045.315.179 0 .404.045.54-.09 0 .27-.27.585-.451.36-.044.18-.225.18-.225.405.18.046-.09 0 0 .135.72.315.99-.495 1.035-1.035-.27 0-.09-.225-.09-.36-.27.045-.27.36-.495.405 0-.09.135-.09.044-.18zm-.54 7.064c.091 0 .091.045.181.045-.045-.18.089-.135.134-.225-.179 0 .091-.18-.045-.18-.044.089-.179.045-.179.089 0 .181-.046.181-.091.27zm.045 2.61c0 .046-.09.046-.09.046 0-.046.044-.046.09-.046zm.09-3.825c-.18-.045-.18.09-.18.135.09 0 .18 0 .18-.135zm-.225 2.295c-.09.135.135.044.089.18.36-.09.451-.406.496-.675-.181.09-.451.225-.315.405-.136.09-.181.045-.27.09zm-.045.855c.045 0 .045.09.09 0 0-.045-.09-.045-.09 0zm.135.99c-.044.09-.135.09-.179.045 0-.045.09-.045.179-.045zm-.225-.54c.18.045.136-.136.316-.045-.225-.27.405-.495.045-.63 0 .045-.045.09-.09.09.09.36-.225.36-.27.585zm0-.675c.046.045.09.045.225.045-.089-.18.136-.135.226-.09-.045-.18.18-.044.18-.225-.136 0-.361.136-.361.045a.87.87 0 0 1 .405-.224c-.225-.09-.36.179-.585.179-.09.136.045.181-.09.27zm0-2.43c.136 0 .225 0 .316-.09-.091 0 0-.046.045-.09-.18-.045-.18.09-.315.044 0 .046-.046.091-.046.136zm0 15.839c-.089.135.225.225.225.045 0-.09-.179 0-.225-.045zm-.045-3.555h.18v-.135c.18.045 0-.135 0 0-.18-.045-.18.09-.18.135zm.135-5.04c-.09.09.045.181-.135.181 0-.09 0-.181.135-.181zm.045-8.999c0 .225-.27.09-.225.27.089.135.45-.18.225-.27zm-.27 9.315v-.09s.045 0 .045-.044h.044c0 .09 0 .179-.09.135zm-.045-9.855s.09 0 .09-.045c-.045 0-.09 0-.09.045zm.179.45c0-.09-.045-.135-.135-.135 0 .135-.09.09-.09.18.09.045.09-.045.225-.045zm-.045 3.285c-.044.134-.27.315-.18.45.09-.09.27-.27.18-.45zm-.225 2.25c0 .179.27-.045.135-.09-.045.045-.09.09-.135.09zm0-1.665s.09 0 .09-.045c-.045 0-.09 0-.09.045zm-.045 7.829c.045-.135.136-.18.18-.315-.18 0-.18.09-.18.315zm.226-5.849c.044.09-.09.36-.045.45-.225-.179.045-.36-.18-.45 0-.136.045-.045.18-.045-.09.045 0 .18.045.045zm-.226-5.535c.045 0 .045.09.09 0 0-.045-.09-.045-.09 0zm.045 1.44c.045.18-.18.36-.045.45.045-.09.27-.36.045-.45zm-.09.855v.225c.09-.135.315-.27.54-.45-.135 0-.18.09-.315.045.09-.18.315 0 .405-.27-.18-.09 0-.136.046-.27-.135-.045-.091.134-.225.089v.226c-.27 0-.315.18-.45.27.09.09.135 0 .225-.045.045.225-.18.09-.225.18zm0-1.44c.27-.044.18-.45.585-.36-.089-.27-.225 0-.404-.045-.045.18-.18.225-.18.404zm0 12.644c-.044 0-.09 0-.044-.044 0 0 .044 0 .044.044zm.315-10.799c-.225.09-.315.27-.405.45.225-.045.27-.27.54-.315-.135-.179.225-.404 0-.54.045.135-.135.09-.18.09.135.179-.045.09.044.315zm-.45 12.87s.045 0 .045-.045c-.045 0-.045 0-.045.045zm.09-15.84c0-.045 0-.135-.09-.135v.09c.045 0 .045.045.09.045zm-.181 14.22s.046 0 .046-.045c-.046 0-.046 0-.046.045zm.046-10.26c.045 0 .09.045.135.045 0-.045 0-.09.089-.09-.045-.135-.179-.315-.27-.225 0 .09.046.136.046.27zm-.046-2.565c.046 0 .046.09.091 0a.05.05 0 0 0 -.091 0zm.046.631c0 .09-.09.09-.046.18.136 0 .136-.18.046-.18zm-.135 2.159s.089 0 .089-.044c-.045 0-.089 0-.089.044zm.135 2.476c-.046-.091-.09-.091-.18-.091-.045.046-.045.18-.09.225.135 0 .27.045.27-.134zm-.135-9.81h-.09c0 .044-.045.044-.045.09.045 0 .135 0 .135-.09zm-.09 7.02c-.136-.045-.09.089-.136.134.091 0 .136-.045.136-.134zm-.315 5.355s.09 0 .09-.045c-.045 0-.09 0-.09.045zm0-4.185c0-.044 0-.135-.09-.135v.09c.045 0 .045.044.09.044zm-.046 6.93c-.225.27.18-.09 0-.045zm-.089-2.07s.089 0 .089-.045c-.045 0-.089 0-.089.045zm.27-2.025c.044-.135-.225-.18-.27-.089.044 0 .044.089.089.134.09 0 .09-.045.18-.045zm-.225-1.799c0 .179-.044.27-.044.359.18 0 .135-.27.044-.359zm-.044 4.814c0-.045.044-.045.044-.135h-.135v.135h.09zm-.045.855c-.135.045.045.225.09.09-.09 0-.044-.09-.09-.09zm.045 4.005c-.135.045-.09-.044-.09-.135.045.045.09.045.09.135zm-.045.09c-.045.045-.045.045-.09.045 0-.045.045-.09.09-.045zm.045-7.695c-.045-.09.044-.225-.09-.18-.045.045-.09.09-.045.18zm-.045 1.081c-.09-.136-.225.135 0 .09zm0-.946c-.045.225-.27.631 0 .72-.045-.27.045-.495 0-.72zm-.09 9.495c0 .045-.09.045-.09.045 0-.045.046-.045.09-.045zm-.09-8.234h.136v-.135h-.09c0 .045-.046.045-.046.045zm.046 1.44c0 .09-.135.045-.09.135.09.045.18-.09.09-.135zm.09-1.305c-.136-.045-.27.135-.136.18 0-.09.09-.09.136-.18zm-.225 3.645h.089c0-.045 0-.045.046-.045v-.09h-.09c0 .045-.044.045-.044.045v.09zm.044 4.14c-.044-.045-.09 0 0 0 0 .09.045 0 0 0zm-.135 4.86c0 .09.045.225.179.225 0-.18-.135-.18-.179-.225zm1.17-16.695c.18 0-.045.36-.136.451.046.09.136.134.136.224-.045 0-.045.045-.09.045-.135-.136-.225-.045-.27.09.224 0 .224.045.405-.044.089.359-.226.404-.09.675-.136 0-.406.136-.45.045-.09-.18.18 0 .135-.18-.091 0-.091-.045-.135-.045-.045.045-.09.135-.135.18 0 .181.135.181.179.315.136.045.091-.134.226-.09-.045.18.089-.044.089.09-.27.36.136 1.08-.179 1.485h-.18v.27c.044 0 .135 0 .18.045-.09.225-.27.36-.361.54.225 0 0 .135.09.225 0-.045.09-.045.18-.045-.09.27.18.45-.045.72.181.315-.044.585.045.99-.045.045-.135.045-.18.045.09.18.135.495 0 .675.225.18-.045.495.045.675-.27.09-.09.36-.315.45.045.135.135-.09.225.044-.225 0 .045.045.045.136-.18-.045-.315.09-.18.18 0-.046.135-.046.135 0-.135 0-.09.224-.135.27-.09.045 0 .045 0 0 .18 0-.045.09 0 .18-.045-.045-.135-.045-.18-.045 0 .225.269.09.315.225 0 .315-.18.585 0 .855-.046.315-.54.135-.54.45.179.09.045-.18.225-.135 0 .09-.09.27.045.27.045.179 0 .225-.045.36.135-.045.135.044.135.18-.18 0-.18.045-.225.135.405-.045.27.495.27.72-.09-.045-.27 0-.27.09.09.044.09-.09.225-.045-.135.135-.09.179.045.27-.18 0-.18.09-.27.09.045.27-.09.315-.09.54.27.09.09-.27.18-.27s.135 0 .225-.045c-.044.135.045.135.045.225 0 .134-.225.09-.179.224.36 0 .45.18.495.45.09 0 .09.044.179.044-.135-.18.09-.315-.089-.45.045-.135.089-.315.045-.45.089 0 .135-.09.18-.181-.091 0-.18-.045-.18-.09.089-.09-.045-.09-.045-.181.18-.09.404-.36.359-.539-.135.09-.27.179-.359.27-.045-.045-.045-.045-.045-.09.45-.27 0-.944.585-1.08-.136-.224.09-.27.045-.585h-.225c-.044.136 0 .315-.09.315 0-.045-.09-.045-.09-.045 0-.09.09-.09.135-.18-.181-.18.135-.45.089-.72-.225-.09-.045-.585.09-.765-.225-.045-.18.09-.315.09-.046-.18.18-.18.18-.406.09 0 .135-.044.18-.134.179.045 0-.136 0 0-.136-.045-.18.134-.18 0 .225-.09.225-.45.405-.585-.135-.045-.18.045-.27.045a.46.46 0 0 1 .27-.225c-.046-.315.09-.36.09-.675-.09 0-.18.045-.18-.045.09-.045.045-.27.225-.36-.045-.045-.18 0-.135-.135.225-.135.179-.495.179-.63-.179.135-.225.225-.359.315-.135-.135.09-.09.045-.315-.135-.045-.18.18-.18.045-.045-.225.225-.09.09-.315.135-.045.179-.225.27-.36-.225-.044-.18.09-.315.09.09-.36.225-.45.315-.765-.18 0-.135.18-.225.045.225-.269.27-.675.45-1.08-.091 0-.225.135-.225 0 .18-.044.045-.044.045-.18.045 0 .089-.045.18-.045-.135-.225.045-.315.135-.45-.18-.045-.09-.135 0-.18-.226-.27 0-.45.089-.72.045-.045 0-.045 0 0-.089 0-.179.045-.179-.045 0-.045.045-.09.135-.09-.044-.181.09-.315 0-.406.136 0 .27-.09.36-.224-.09 0-.09.045-.135.045-.045-.181.18-.09.225-.27-.18-.045-.045-.36.135-.451h-.18c0-.045.045-.045.09-.134-.09-.045-.225.134-.09.134 0 .09-.225.136-.225.045.045-.045.045-.179.135-.09-.045-.134.045-.089.045-.225-.18-.045-.09.136-.18.136v-.226h-.09c-.045-.044-.09 0 0 0-.045.136-.09-.044-.135-.044-.045.09-.09.135-.18.135.046-.135.136-.224.27-.315-.089-.089-.179 0-.224.045 0-.09-.091-.134-.135-.179-.045.045-.09.09-.135.09-.046-.044-.09 0 0 0-.046.09 0 .136.045.18-.135 0-.18.09-.225.18-.045-.18 0-.585.18-.72.179 0-.046-.181 0 0-.09 0-.135 0-.135-.045.044-.045.089-.54-.045-.36-.045.225-.27.63-.54.765.089 0 .225 0 .27.09-.045.136-.045.136 0 .27-.135 0-.315-.045-.315.09.089 0 .18 0 .27-.045v.179c-.225 0-.045.226 0 0zm-1.125 9.63c-.09 0-.136.045-.136.09.046 0 .091-.045.136-.09zm15.029-32.174c.136.09 0 .135.09.226-.09.36-.315.585-.315.899-.225.09-.225.36-.404.45-.045.09.044.09.044.18-.54.945-.945 1.98-1.395 2.925-.225.18-.315.315-.359.585-.135.045-.135-.045-.226-.045-.135 0-.089.225-.135.27-.045.09.135.045.225.045-.225.225-.586.315-.765.36-.045.63-.765 1.395-1.17 1.755 0 .046 0 .091.09.091-.315.315-.405.81-.855.989 0 .09.09.045.09.18-.675.494-.99 1.305-1.665 1.755v.315c-.855.945-1.62 1.98-2.565 2.79-.09.09 0 .044 0 .18-.585.27-.63 1.035-1.125 1.305 0 .135.045.315-.135.315-.09.135.135.045.091.18-.091 0-.091.09-.181.044 0 .27 0 .315.045.495-.135 0-.135-.09-.225 0 0 .045.046.045.135.045-.089.45-.315.675-.27.99-.225.09-.089.134-.089.404-.136.271-.27.406-.361.721 0 .63.136 1.35-.405 1.529.27.585 0 1.081-.044 1.846-.09.045-.136.09-.18.09.045.089.09.089.045.225-.225-.045-.179.225-.27.27 0 .09.18 0 .225.09-.045.225-.045.675-.18.945-.135 0-.18 0-.225-.045.09.45-.09.63.135.855 0 .09-.135.045-.135.136.09.045.18.135.135.315-.179.045-.135-.091-.225 0 .09.089.135.224.225.359-.404.9 0 1.62-.36 2.52-.044.135.09.135.09.27h-.09c.09.225.09.315.18.63-.315 0 .09.315-.18.27.135.27.18.855 0 1.035.045.36-.044.495 0 .765-.225 0-.225.09-.359.09-.045.135.089.135.179.18-.045.09-.045.18-.135.225 0 .045.18.135 0 .135.27.18.135.585-.09.72 0 .179.135.179.225.315-.135.27-.179.405-.045.675-.315.09 0 .225 0 .45-.089 0-.134 0-.134-.046 0 .225.134.27.315.316 0 .09-.181.045-.226.045 0 .18 0 .315-.089.36.089.225 0 .315 0 .585h-.136c0 .18-.045.36.046.495-.495.27.179.944-.091 1.214.136.135.315.315.136.495.179.225.225.585.045.809.045.09.045.18.134.225-.134.136.091.27-.089.27.18.315.405.72.45 1.08.855-.765 1.62-1.665 2.205-2.745.045 0 .045-.045.135 0 0-.18 0-.18.045-.36.225.045.404-.765.719-.765-.135-.18.045-.224.045-.45.09 0 .135-.09.135-.226.09 0 .09.045.135.09.091-.045.135-.224.225-.315-.135-.045-.045-.09-.045-.27.045 0 .09.09.18.045.09-.18-.09-.09-.09-.27.09-.136.045.09.18.09-.135-.315.045-.495.225-.765 0 .045 0 .045.045.09.405-.901.675-1.531.945-2.565.09.135.765-1.26.675-1.53.225.135.179-.36.404-.405-.045-.045-.09-.045-.135-.045.135-.225.18-.54.405-.63-.045.045 0 .045.045.045 0-.045-.045-.045-.045-.045 0-.135-.09-.09-.045-.225.135.045.09.045.225-.045.046-.135-.135-.225 0-.27 0 .09.046 0 0 0-.044-.135.136-.09.091-.27.045 0 0 .135.09.135-.135-.405.18-.72.18-1.035.09-.044.135.045.27-.044-.045-.046-.135-.046-.18-.046.09-.045.135-.09.27-.135-.045-.18.09-.36 0-.45.045 0 .135 0 .18-.045 0-.135-.135-.09-.135-.179a1.34 1.34 0 0 1 .18-.45c.045 0 0 .136.09.136.045-.181.36-.54.18-.721 0-.09.135-.045.18-.09-.135-.045-.18-.225-.09-.361.27.135.36-.224.405-.494.09-.091.136-.226.226-.406 0-.045-.135-.134-.135-.045-.135-.045.045-.225.045-.359.045.044.09.18.09.27.09-.136.135-.315.314-.496-.179-.179.226-.585.315-.855-.089-.044-.179-.044-.224-.135 0-.136.18.045.18-.225.044 0 .044.045.09.089.045 0 0-.134.09-.134-.18-.045-.136 0-.136-.225.046 0 .091.044.136.09.225-.225.27-.585.135-.9h.226c.674-1.17 1.26-2.7 1.845-3.87.135.045-.046.09 0 .18.179-.045.045-.18.045-.315.045-.09.09-.18.225-.225.136.225-.09.765-.315.9.09.18-.045.495-.225.63.045.225-.046.27-.09.405.315.225.27-.315.405-.585.45-.09.27-.54.405-.9.045-.225.405-.405.18-.54.089-.09.045-.27.27-.27 0-.045-.045-.09-.045-.135-.27 0-.18.18-.405.27 0-.044-.044-.044-.044-.044 0-.046-.045-.046-.045-.046v-.09c.045 0 .09-.045.18-.045 0-.135-.09-.135 0-.225.045.135.09.09.18-.045.09 0 .045.18.135.18.045-.225.27-.36.315-.63-.046-.27-.225-.18-.361-.315.09-.09.315-.54.406-.36.045-.045.089-.135.134-.18-.045-.045-.134-.045-.134-.09.404-.945.944-1.844 1.44-2.744h.45c0 .27.045.494.135.675-.36.54-.315 1.485-.855 1.89-.045.089.044.089.044.179-.18.045-.135 0-.225.045.045.045.045.18.18.18 0 .135-.226.045-.136.225 0 .09.091-.045.18-.045-.405 1.71-1.08 3.195-1.755 4.635-.09.09-.09 0-.18 0 .045.224-.089.36-.045.585.18.045.045-.27.27-.225-.18.36-.54.54-.629.945-.09 0-.181.135 0 .09.089.046-.09.136.045.181 0 .45-.63.495-.451.944-.045.136-.09.181-.179.181 0 .584-.406.765-.451 1.395-.089.044-.179.134-.225.044 0 .18.046.135.18.09 0 .18-.226.045-.18.225-.18.045-.135-.135-.225-.045-.045.226.135.045.225.135-.225.54-.18 1.17-.585 1.44.225.18-.27.361-.045.63-.585.45-.359 1.44-.945 1.889 0 .135.135.135.089.315-.089 0-.089.09-.179.045-.045.765-.585 1.215-.585 1.89a.97.97 0 0 0 -.225.18c.225.045 0 .315.225.315-.09.135-.18.09-.09.27-.585.405-.495 1.17-.81 1.755.225.315-.09.675-.315.9.135.09-.045.27.09.36-.045.09-.135.09-.18.044-.09.226-.18.451-.36.585 0 .09.045.136.179.136-.135.045-.135.179-.314.179-.09.136.135.046.09.181-.315.044-.27.404-.495.584 0 .045 0 .09.045.135-.135.495-.585.675-.585 1.305-.27.36-.719.81-.675 1.17-.45.36-.63.991-1.125 1.26.135.36-.359.27-.315.63h-.225c-.045.09 0 .135.135.135-.269.315-.495.495-.945.54-.135.045-.135.18-.18.27-.585.45-1.35.81-2.386.585-1.395-.495-2.204-1.53-2.7-2.88-.09-.09-.09-.18-.225-.18.18-.27-.09-.45-.27-.585.09-.315-.36-1.17-.226-1.665-.27-1.395.18-3.105 0-4.77.226-.225-.089-.585.226-.855-.226-.225 0-.765-.135-.9.135-.135.18-.135.27-.27-.09-.045-.09-.36-.18-.225-.135-.045 0-.18.135-.135-.135-.135 0-.315.09-.54-.225-.54-.045-1.035.09-1.71 0-.089-.135-.045-.135-.135.36-1.215.09-2.789.45-3.825-.045-.044-.045-.044-.09-.044.36-1.215.18-2.475.54-3.69-.136-.045-.091-.36.09-.36-.181-.54.18-.765.044-1.17.18-.18-.09-.855.27-.99l-.135-.135c.045-.18.27-.36.09-.54.09.045.18-.315.045-.27.135-.54.27-1.08.27-1.71 0-.045.044-.09.135-.09-.18-.18.179-.405 0-.54 0-.09.09-.09.135-.18.089-.9.495-2.25.72-3.059-.046-.045-.046-.045-.09-.045.27-.54.18-1.44.585-1.935.045-.09.045-.27.091-.405-.046 0-.091.046-.046.09-.135-.585.361-1.17.225-1.755.315-.27.136-.945.495-1.08.044-.765.405-1.395.72-2.16 0-.045-.09-.045-.09-.09.9-1.755 1.485-4.05 2.565-5.894 0-.091-.089-.091-.045-.18h.135c.405-.945.99-1.71 1.486-2.655.179-.18.315-.45.45-.765.63-.405.989-1.395 1.44-1.845.225-.045.36-.225.585-.315.045-.315.495-.585.855-.585.045-.091-.045-.091.045-.225.18.135.314-.135.54-.135-.09.09 0 .09.089.135.046-.135.091 0 .181-.135.134 0 .089.135.225.135 1.35-.315 2.835.225 3.915.9 0 .451.675.72.45 1.125.27.36.135.99.495 1.485-.09.045-.135.09-.18.09 0 .09.136.045.18.09-.135.855-.135 1.575-.18 2.475-.45.315-.359 1.215-.81 1.665.045.315-.09.405-.225.585 0 .09.09.045.09.136-.225 0-.315.315-.225.404-.27.36-.18.855-.54 1.125z" mask="url(#b)"/><path d="m212.126 27.434c-.09.045-.09-.045-.09-.135.045.045.09.09.09.135zm-.225-2.925c.089 0 0-.044 0 0-.18.045 0 .226 0 0zm-.315.495h.09v-.09h-.09zm-7.11 17.594c0 .09-.18.135-.045.18 0-.044.18-.135.045-.18zm-2.385.63h.09v-.09h-.09zm-.135-.495c.045 0 .09 0 .09-.045-.045.045-.09 0-.09.045zm-.674-16.425c0-.045-.045 0-.045 0zm-.27 1.125c-.09 0 0-.135 0-.18.135.045-.044.09 0 .18zm-.045.135h.09v-.09h-.09zm.045.045c0 .045-.044.045-.09.045 0-.045.045 0 .09-.045zm-.54 11.34c0 .045-.089.135 0 .135 0-.045.09-.09 0-.135zm-.044-8.505c0 .046-.045.046-.09.046 0-.046.045 0 .09-.046zm-.675 4.23s-.045 0-.045-.045a.03.03 0 0 1 .045.045zm-.135 14.805c.045 0 .09 0 .09-.046-.045.046-.09 0-.09.046zm0-12.69c.045 0 .09 0 .09-.045-.045.045-.09 0-.09.045zm-.359 7.965c.045 0 .135 0 .135-.044-.045 0-.135 0-.135.044zm-.045 4.545c0 .045-.045.045-.09.045 0-.045.045 0 .09-.045zm-.09-.135v-.045c-.045 0 0 .045 0 .045zm3.735-12.465c.045.315-.135.81-.09 1.261-.045 0-.09-.046-.18-.09.135.225 0 .225.135.45-.135.135-.044-.135-.225-.09.225.855.09 1.349-.135 1.98l.135.135c-.18.54-.045 1.53-.27 2.205.09.09.181.181.181.316-.045 0-.045-.046-.136-.09 0 .45.18.99-.135 1.125.18 1.035-.405 1.846-.45 3.06.81-1.125 2.025-2.16 2.34-3.645.45.044.18-.766.45-.99.09 0 .135.045.18.045.855-1.53 1.665-3.195 2.25-4.995a.5.5 0 0 0 .27-.675c.09-.18.09-.405.27-.495-.045-.135-.045-.18 0-.315.09 0 .09.046.135.046.135-.631.405-1.125.54-1.756v.136c.18-.09.135-.315.09-.495.179.09.045-.45.27-.315.045-.135-.091-.135-.045-.315.45-.315.315-1.215.81-1.53.09-1.261.945-2.116 1.08-3.6h.136c.045-.405.225-.54.179-.99h.18c.225-.45.36-1.125.675-1.575-.09 0-.045-.179-.18-.225.315-.585.72-1.079.99-1.71.18.09.36.135.63.09 0 .27 0 .495-.18.541 0 .089.09.044.09.089-.135.181-.044.54-.315.54.18.45-.495 1.17-.225 1.665-.18.18-.044.495-.18.765-.045 0-.09-.045-.09-.135-.135.27-.135.675.045.855-.045.135-.135.315-.045.45-.09.046-.135 0-.135-.134-.225.405.27 1.035-.361 1.215.18.18 0 .405-.135.495.315.225-.225.765 0 .9-.451.674-.27 1.305-.72 1.89.09.36-.09.675-.27.855 0 .09.046.09.046.179-.405.991-.495 1.935-1.08 2.7-.135.855-.405 1.35-.766 1.935 0 .045.091.045.136.045-.361.855-.72 1.71-1.215 2.385.046.09.09.09.046.18-.45.72-.631 1.62-1.216 2.16 0 .09.046.09.046.179-.45.406-.63 1.216-.99 1.62-.135.81-.765 1.125-.99 1.89-.405.315-.45.989-.899 1.26-.361.766-.855 1.485-1.576 2.07-.045.045-.09.135-.09.225-.225.045-.359.18-.584.225-.136 0-.27-.045-.315-.18-.045.045-.091.09-.091.135-.63-.135-1.215-.584-1.665-1.08.09-.089.135.135.225-.045 0-.225-.27-.225-.315-.36.045 0 .045-.045 0-.045 0-.09-.135-.179-.045-.27.18-.045.045.225.135.225s.045-.134.18-.09c-.135-.044-.045-.315-.225-.36-.135-.045-.135.09-.18.135-.136-.09.135-.225.135-.36-.045-.135-.045-.09-.089-.27h.18c0-.044-.09-.044-.135-.09 0-.045.135 0 .135-.09.045-.134-.18-.045-.135-.225.09 0 .18 0 .135-.09 0-.045-.045.045-.135 0 .27-.36 0-1.395.09-1.755-.045-.134-.09.09-.225 0 .225-.09.045-.27.135-.45.18.09.045-.135.135-.135-.315-.27.225-.81.045-1.26.045 0 .135-.045.135-.091-.27-.089.045-.359-.18-.585.135-.135.225-.72.045-.855.27-1.575.179-2.609.225-4.41.09 0 .135-.09.225-.09v-.405c0-.09-.135.045-.135.135-.136 0 .044-.315-.09-.315 0-.09.179-.09.225-.044 0-.181-.09-.226-.225-.181 0-.045.045-.045.045-.09.18-.45.135-1.71.225-2.25.091 0 .091.09.135.044.045-.135-.135-.044-.225-.089.045-.046.09-.046.09-.136.091 0 .046-.135.046-.225.09.09.27.09.179-.09-.045-.134 0 .136-.134.045-.045-.315.179-.315.225-.675-.046-.136-.046.135-.18.044.09-.134.135-.314.225-.404 0-.136-.09 0-.136-.09.045-.36.181-.224.225-.719-.044-.136-.09.089-.18-.045.225-.406 0-.676.225-1.035.09.135.09.044.18.089 0-.179-.36-.134-.135-.36 0 .135.135.135.18.18l.36-2.386c0-.045-.045 0-.09.045-.044-.45.226-.9.09-1.305.045-.045.136-.045.225-.045.09-.36.18-.495.18-.9-.09.045-.09.18-.136.27-.134-.18.09-.45.045-.72.045 0 .045-.045.09-.045 0 .045.045.045.045 0 .179-.045.089-.45-.045-.36 0-.135.09-.09.18-.09.045-.181-.09-.181-.09-.316.36-2.07 1.035-4.32 1.665-6.93 0-.09-.135.046-.225.046l-1.17 1.755c0 .134.226.045.27.045-.09.18-.27 0-.405.09-.45.675-.585 1.306-1.17 1.71.18.36-.405.63-.135.945-.496.63-.721 1.62-1.036 2.43-.089.315-.27.495-.404.765 0 .09.044.18 0 .225-.045.225-.315.495-.36.63 0 .045.09.09.09.09-.09.315-.315.63-.451.945l-.9 2.295c-.089.27-.27.45-.404.675-.09.226-.09.406-.18.585s-.225.315-.36.496c-.27.495-.405 1.08-.72 1.395-.045.044-.179.044-.225.09-.045.09.045.09 0 .181-.09.27-.54.359-.63.63h-.18c-.045.09-.045.181-.135.225-.09 0-.09.09-.225.044-1.845.99-3.285-1.08-3.465-3.149l-.315-5.265c-.135.045-.135.27-.315.27 0 .135-.09.18-.09.315-.72.675-.945 1.845-1.62 2.565-.269.945-.675 1.755-1.17 2.474-.045.226-.045.495-.315.54-.224.9-.719 1.891-.809 3.061-.405.225-.631.63-1.125.719-.9.045-1.395-.36-2.16-.494-.09-.091-.135-.27-.27-.406 0-1.485.54-2.925.54-4.59 0-.045-.045-.045-.135-.045 0-.09.18 0 .18-.09-.09-.765.225-1.71.09-2.34v-1.395l.09-3.06c-.045-.045-.09-.134-.18-.18.135-.225.27-.45.45-.585.9.046 1.71.585 2.565.54.45.18 1.125.27 1.17.9-.18.675-.045 1.215-.18 1.756 1.035-.541 1.935-2.655 3.555-2.61.72.045 1.305.405 1.845.675.09.226.18.36.315.495 0 .36.18.585.045.899.045.63.09 1.845-.135 2.52.18.945.045 1.846 0 2.88.18.72 0 1.845.54 2.341 1.125-.495 1.395-1.89 1.845-3.06.315-.45.495-.99.63-1.62.09 0 .045-.135.135-.18 0-.225.135-.405.225-.54.091-.225.091-.54.315-.63-.089-.225.091-.225.091-.495.855-1.71 1.889-3.915 3.059-5.579.046-.136.046-.09 0-.225.361-.225.495-.72.765-1.08-.044-.045-.09-.135-.225-.135.045-.046.091-.09.181-.09.989-1.89 2.024-3.779 3.554-5.129 1.035 0 1.62.36 2.34.585.405.405.45 1.08.495 1.575-.09 1.665-.45 2.565-.72 4.23-.045 0-.045.09-.135.045-.09 1.035-.27 1.8-.675 2.7.18 1.395-.495 2.52-.63 3.6-.09.135-.045.405-.225.405.09 1.125-.495 2.16-.495 3.33-.135.045-.045.27-.18.27.135.494-.18.9-.135 1.394-.045 0-.09.046-.134.046.224.63-.226 1.17-.136 1.98-.045 0-.045-.045-.135-.09.135.406-.136.81 0 1.306 0 .09-.046.134-.136.09.136.135.045.18.09.36h-.045c0-.135-.18.045 0 0z" mask="url(#b)"/><path d="m220.543 29.549c.045 0 .09 0 .09-.045 0 .045-.09 0-.09.045m-7.199-3.195c1.484-.54 2.7-1.71 2.88-3.285-.09-.135-.315-.18-.405-.405-1.305.811-1.619 2.52-2.475 3.69m-4.32 1.665c0 .09-.046.045-.136.045.045-.045.09 0 .136-.045m2.925 1.44c-.585 1.8-1.485 3.555-1.305 5.715-.09.18 0 .225-.135.315 0 .18.135.18.089.36 1.8-.45 2.925-1.575 4.275-2.475.585-.54 1.305-.945 1.8-1.62h.18c.27-.36.495-.765.945-.989.495-.81 1.35-1.261 1.755-2.205.135-.045.225-.18.359-.27.675-1.125 1.53-1.89 2.34-2.924.179 0 .179.179.315.134v.406c-.361.494-.27 1.215-.855 1.619.135.225-.09.225-.18.361.09.45-.63.855-.495 1.215-.63.585-.855 1.575-1.62 1.935-.18.675-1.215 1.125-1.305 1.71-.09.045-.09-.045-.135-.09-.495.9-1.395 1.395-1.935 2.205-.855.405-1.395 1.17-2.295 1.53-.855.72-2.745 1.575-3.78.54-.225.09-.27-.09-.495-.09-2.429-1.665-1.35-6.3-.404-8.775 1.17-2.474 2.25-5.084 4.319-6.659.811-.09 1.666-.36 2.475-.225.675.135 1.169.63 1.62.81.585.99.63 2.25-.135 3.15-.045.09-.18.09-.225.134-.18.27-.27.631-.45.81-.09.135-.27.225-.405.315-.225.27-.36.451-.675.585-.045.225-.225.316-.225.45-.675.63-1.26 1.08-2.385 1.35-.224.045-.315-.045-.539-.045-.181.224-.225.585-.495.72 0-.045-.045.045 0 0" mask="url(#b)"/><path d="m238.676 26.264c.18.045.046-.136 0 0-.18-.045 0 .135 0 0zm-.09 1.8h.09v-.09h-.09zm-1.845 2.925h.09v-.09h-.09zm-.045 2.115c.045-.045.09-.27 0-.315.045.179-.225.224-.091.36 0-.045.091-.045.091-.045.045.045.09 0 0 0zm-.27.45c.09 0 .09 0 .135.045 0-.179.18-.224.09-.405h-.179c0 .045 0 .09-.045.135.315 0 0 .09 0 .225zm-.045.091c.09-.046 0-.046 0 0-.046.045 0 .045 0 0zm-.135-3.735c.044 0 .09 0 .09-.046 0 0-.09 0-.09.046zm-.585 1.305c0-.045-.045 0 0 0 .045.045.089 0 0 0zm.089 4.14c0 .045-.044.09-.135.09.045-.044.09-.09.135-.09zm-.179.405h-.135c.044-.045.044-.09.044-.135.091 0 .091.046.091.135zm-.225-2.43c-.181.225.225-.09 0-.045zm-.63 3.69c-.135-.09.09-.18.09-.27.18.09-.045.18-.09.27zm-.045-3.42c.045 0 .135 0 .135-.045-.045 0-.135 0-.135.045zm-.046 3.51c0 .045 0 .045-.044.045 0-.045 0-.045.044-.045zm-.044.045c0 .045 0 .045-.045.045 0-.045 0-.045.045-.045zm-.09.18c-.045 0 0-.09 0-.135h.045c0 .045 0 .09-.045.135zm.09.135c0 .045-.045.09-.135.09.045-.045.09-.09.135-.09zm-.045-3.96v.136c-.045 0-.045-.091-.135-.091 0-.045.09-.045.135-.045zm-.135.045c0 .045 0 .045-.046.045 0-.045 0-.045.046-.045zm-.046.091v-.046c-.044 0 0 .046 0 .046zm-.089-.136c-.09-.045 0-.225.089-.18.046.135-.089.09-.089.18zm.045 4.095c0 .09-.18.045-.135.18.135 0 .27-.135.135-.18zm-.225-2.925c.045 0 .09 0 .09-.045 0 0-.09 0-.09.045zm.09-1.034c0 .045-.045.045-.09.045 0-.045.09-.045.09-.045zm-.045.134c0 .09-.091.135-.135.27-.135-.045.044-.18 0-.27zm-.405 1.035c0-.045.09-.045.09-.045.045-.09-.046-.09-.046-.135.09-.045 0-.045 0 0-.09-.09-.09.18-.044.18zm-.315 4.635c0-.225.09-.27.27-.361-.045.181-.09.316-.27.361zm.135-3.779c-.045.09-.18.09-.18.224.135 0 .27-.18.18-.224zm-.27-.451c-.09-.045.09-.27.135-.315.045.181-.09.225-.135.315zm-.315.451c0-.136.135-.09.09-.27.135 0 .135.315-.09.27zm.045 4.274c-.135-.044-.18.225-.045.225-.046-.135 0-.135.045-.225zm-.135.27c-.045-.044-.135-.134-.18 0 .09-.044.18.136.18 0zm0-4.094c-.09-.135 0-.09-.18-.045.045-.135.09-.225.18-.27.044.18.09.18 0 .315zm-.27.27c.045 0 .09 0 .09-.045 0 0-.09 0-.09.045zm-.18.63c.18-.135-.09-.36-.135-.135.18-.09.045.135.135.135zm-.495.81c-.045.045-.27 0-.27.135.135-.045.27-.045.27-.135zm-.27.36c.135-.27-.18-.135 0 0 .045.045.09 0 0 0zm.09 4.23c-.09.044-.09-.09-.18-.09 0 .09 0 .224.09.224.045-.045.09-.09.09-.135zm-.18-3.96c0-.045.045-.225-.045-.225 0 .135-.18.09-.18.27.135 0 .09-.09.225-.045zm-.585 6.165c.135 0 .135.135.045.18h-.045zm-.225.54c.045-.09.09-.136.09-.18.135.045.045.225-.09.18zm.045-5.715h-.09c.135-.225.18-.54.405-.63-.045.09-.09.135-.09.27-.09.09-.18.316-.225.361zm-.045.09c-.18.045-.135.315-.315.36.09-.135.135-.36.27-.45.045.045 0 .09.045.09zm-.36.81c-.18.225.226-.09 0-.045zm0 5.804c-.135 0-.18.045-.225.135.135 0 .225 0 .225-.135zm-.45-5.264v-.045c-.045 0 0 .045 0 .045zm-.45.495h.09v-.09h-.09zm-.09.675c-.045.09.18.135.135.045-.044 0-.044-.045-.135-.045zm-1.349 2.205c-.046.045 0 .18.045.225 0-.045.044-.225-.045-.225zm-.496 1.17c.045 0 .045.046.045.091-.045.044 0 .044 0 0 .09 0 .09-.045.09-.136.09-.045 0-.045 0 0-.045 0-.135 0-.135.045zm-4.949 8.73c0 .045-.045.045-.09.045 0-.045.09-.045.09-.045zm-.361-.225h-.089v-.09c.089 0 .135 0 .089.09zm-.224-.226c.09 0 .135.045.135.136-.09 0-.135-.045-.135-.136zm-.315-8.864c.045 0 .09.046.09 0s-.045-.045-.09 0zm-.27 6.93c-.046 0-.135 0-.135.09.089 0 .135-.045.135-.09zm-.225-4.904c.045 0 .09 0 .09-.045 0 0-.09 0-.09.045zm-.045 3.825c.045 0 .09 0 .09-.045 0 0-.09 0-.09.045zm3.825-38.383c0 .18-.135.27-.18.45-.18.09-.27.315-.495.405-.585 1.215-1.44 2.205-1.98 3.51-.45 1.26-.855 2.7-1.17 4.275.045.854 0 1.889.36 2.654 2.114-3.149 4.32-6.209 5.579-10.169.045-.585.136-1.17-.045-1.755-.36-.09-.405-.405-.72-.405-.495 0-.9.81-1.35 1.035zm-3.735 38.248c.045-.135-.09-.18-.135-.045.09 0 .09 0 .135.045zm-.18-1.575c0 .045-.045.045-.09.045 0-.045.09-.045.09-.045zm3.915-6.525c.089.181-.045.315-.135.406.09.945-.27 1.844-.63 2.925.18.044-.045.225.136.225-.225.27-.091.585-.27.855 0 .045.089.045.135.045-.045.63-.09 1.349-.315 1.845.18.315.045.45-.044.72.089 0 .135 0 .089-.09.046.495.225 1.395 0 1.665 0 .045.09.045.136.045-.045.18-.045.09-.09.27.045 0 .225 0 .135.225.99-1.485 1.89-3.06 2.609-4.815.09.045.136.225.181.045.089-.045 0-.045 0 0h-.091c-.045-.135.136-.09.18-.09.045-.225-.135 0-.135-.18s.09-.045.18-.045c.09-.135.18-.315 0-.405.225-.315.315-.63.495-.99.09 0 .135.045.181.045-.181-.495.269-.675.315-1.125.089.045.179.135.089.225.54-.405.63-1.305 1.035-1.845 0-.045-.045-.09-.09-.09.27-.045.18-.406.406-.495.089.09.044.135-.046.18h.135c.09-.135.045-.225-.135-.27.046-.136.09-.045.225-.045 0-.046 0-.09-.045-.135.135 0 .09.089.18 0-.18-.045.09-.226-.135-.226.045-.224.27-.224.27-.45.045 0 .045-.045 0-.045 0-.18.27-.405.045-.495.135-.045.135-.09.27-.045 0 .09-.09.18.045.224-.045.136-.09-.045-.18.046 0 .09.135.045.09.18-.045-.045-.045-.045-.135-.045 0 .09.09.09.044.18.135 0 .27-.27.18-.361 0-.269 0-.674.225-.539.045.135-.135.045-.179.135.044.045.09.09.09.135.315-.27.585-.765.585-1.171.27-.09.225-.314.405-.359-.045-.18-.18-.09-.315 0 .27-.315.315-.855.72-.99-.135-.135 0-.405.18-.495 0 .225-.09.36-.09.495.09-.045.36-.27.135-.315.045-.09.18-.09.135-.225.09 0 .135-.045.135-.09.045-.09-.18 0-.135.09-.09-.09-.09 0-.18.045.135-.405.495-.585.54-1.035.81-.045.9-1.17 1.215-1.845.046.09.135.09.09-.045.045 0 .09.045.09.09.225-.27.18-.495.404-.764.046.045.136.045.136.089.045 0 .045-.044.045-.089.045 0 .045-.091.045-.136-.045-.09-.18-.09-.18-.225.09 0 .09.045.09.136.135-.226.27-.136.27-.495-.136 0-.136.09-.136.225-.089 0-.044-.136-.135-.136.315-.63.585-1.304.989-1.8.136-.315.136-.719.406-.899 0 .18-.18.27-.09.404-.09.046-.135.27-.135.406.404-.18.27-.81.315-1.125.225.18 0-.18.18-.315.09 0 .045.09.09.09.135-.09-.09-.135-.045-.315.089 0 .135.044.135.089-.045.046 0 .046 0 0 .136-.045-.045-.134-.045-.27.136 0 .091-.179.181-.179.045.045.09 0 0 0 0-.136 0-.225.134-.225.045.134.045.134-.044.225h.135c.045.045.09-.36-.091-.315.045-.045.136-.09.091-.225.135.09.135.135.09.36.089-.09.18-.18.089-.315.09 0 .09.045.136 0 0-.09-.09-.181-.09-.315.135 0 .045.18.135.18.135-.18-.045-.316 0-.495.09.179.135.045.225.179.135-.045 0-.179 0-.269.045 0 .045.045.09.045.044-.135-.09-.135-.135-.225.27 0 .27-.27.54-.36.045-.18-.045-.315.09-.45.18.045 0 .135.135.18.18-.09.09-.225.045-.315.18-.135.27-.315.495-.36 0-.045-.044-.09-.135-.135.36-.36.63-.54 1.125-.675a1.61 1.61 0 0 1 .45.315c.045.135-.18.18 0 .224 0 .09-.18 0-.225.09 0 .09.136.045.091.135-.54 1.125-1.486 2.52-1.89 3.825-.045 0-.09.045-.18.045.045.134.18.134-.09.134-.045.136.09.136.135.18-.09.63-.675 1.035-.675 1.62h.135c-.09.09-.225.136-.36.18 0 .09.18.045.18.09-.135.046-.226.136-.36.18.045.135.09.045.18.045-.135.585-.315 1.26-.765 1.665.09-.18.135-.359.18-.54-.18.225-.225.63-.495.766.045.044.09.044.135.09-.045.09-.18.045-.226.18.27-.136 0 .18.18.135-.045.045-.09.09-.135.18-.09 0 0-.18-.045-.27-.225.226-.27.675-.585.811.045.494-.629.855-.584 1.395-.226-.045-.135.405-.315.315 0 .135.045.18.18.18.045.225-.18.45-.315.27.045.135-.045.135-.091.225.046.135.091-.045.181 0-.09.135.045.135-.045.27-.18.045-.09-.18-.27-.135-.36.54-.765 1.305-.81 2.07-.405.269-.45.99-.99 1.394 0-.179.18-.134.045-.315-.18 0-.09.27-.135.45-.045 0-.045 0-.09.045.045.045.09 0 .09-.045.045-.045.135-.045.135-.09.225.09-.135.135-.045.405-.045.045-.135.09-.225.134.045.495-.315.855-.54 1.531h-.18c.225.63-.45.989-.54 1.485.044.135.135-.045.225 0-.27 1.08-.945 2.024-1.17 2.88-.135.135-.179.36-.405.405 0 .09.135.045.09.18-.18.045-.09.315-.315.315-.36 1.17-.945 2.025-1.485 3.15-.089.045-.089.18-.27.18-.135.585-.855.945-1.125 1.53-.405.315-.9.54-1.484.675-.09 0-.09-.044-.136-.09-.405.09-.81.135-1.304.045.045-.045.09-.09.09-.135-.18.09-.405-.135-.675-.135.045-.09.09-.09.179-.09a1.34 1.34 0 0 0 -.63-.451c-.18-.674-1.035-1.259-.945-2.204h.09c0 .045 0 .135.044.135.136 0 .046-.135-.044-.135-.045-.18 0-.18-.045-.316-.045 0-.045.045-.09.045-.09.045.179.09 0 .18-.27-.225 0-.81-.225-.945.18-.225-.181-.855.225-.99-.045-.225.135-.63-.09-.72a2.22 2.22 0 0 1 .135-.315c-.09 0-.18.045-.225.135-.09-.09-.135-.45.09-.45 0-.18-.045-.225-.135-.45.09 0 .18-.045.18-.09s-.045-.045-.135-.045c.18-.135 0-.359.225-.45-.315-.135-.045-1.034.045-1.44.045-.045.135-.045.135-.09.045-.135-.18.045-.18-.09.315-.181.18-.54.315-.81-.045 0-.09 0-.09.09-.18-.09.045-.135.09-.179 0-.046-.045-.046-.135-.046.045-.134.045-.27.18-.27-.226-.315.18-1.125.314-1.62 0-.09-.044 0-.135 0 0-.136.045-.181.135-.181.496-1.575.855-3.509 1.395-5.039 0-.045 0-.09-.09-.09.225-.135.45-.675.27-.9.315-.18.36-.675.405-1.08.36-.45.585-1.395.63-1.845h.136c.27-1.215 1.08-2.295 1.214-3.78-.359-1.755-2.52-1.26-3.869-2.07-.18-.135-.495-.495-.81-.27-.225-.09-.406-.225-.63-.36-.09-.585-.405-.99-.54-1.53-.36-.675-.585-1.485-.855-2.25-.315-1.395-.225-2.97.09-4.274.855-3.06 1.935-5.895 3.915-7.785.315-.63.989-.855 1.304-1.485.181.09.406-.135.451-.315 1.665-.224 3.06 0 4.23.81v.136c.36.179.45.63.63.989-.09.45.18.9.09 1.44-.404 2.25-1.08 4.23-2.159 6.03v.27c-1.261 2.34-2.656 4.544-4.096 6.75.495.36 1.125.405 1.71.54 1.665.225 2.835.899 3.375 2.205.18 1.8.045 3.69-.63 4.95-.18.81-.495 1.485-.81 2.16-.27 1.169-.765 2.249-1.26 3.329 0 .72-.45 1.305-.585 2.07.09.27-.09.45-.136.63-.044.045-.135.045-.225.09.09.27.045.45-.089.675-.045.045 0 .045 0 0z" mask="url(#b)"/></g></g></svg>